<?xml version="1.0" encoding="utf-8"?>
<!-- Generator: Adobe Illustrator 19.0.0, SVG Export Plug-In . SVG Version: 6.00 Build 0)  -->
<svg version="1.1" id="图层_1" xmlns="http://www.w3.org/2000/svg" xmlns:xlink="http://www.w3.org/1999/xlink" x="0px" y="0px"
	 viewBox="46 -6 108 28" style="enable-background:new 46 -6 108 28;" xml:space="preserve">
<style type="text/css">
	.st0{fill:#FFFFFF;}
</style>
<title>Page 1</title>
<desc>Created with Sketch.</desc>
<g id="Symbols">
	<g id="Page-1" transform="translate(33.000000, 10.000000)">
		<path id="Fill-1" class="st0" d="M54.2,3.2h1.2v3.9c0,0.5,0.1,0.9,0.4,1.2c0.3,0.2,0.8,0.3,1.4,0.3c0.6,0,1.1-0.1,1.4-0.4
			C58.9,7.9,59,7.5,59,7V3.2h1.2V7c0,0.8-0.3,1.4-0.8,1.8c-0.5,0.4-1.3,0.6-2.2,0.6c-1,0-1.7-0.2-2.2-0.6c-0.5-0.4-0.8-1.1-0.8-1.9
			L54.2,3.2L54.2,3.2z"/>
		<path id="Fill-3" class="st0" d="M71.1,3.5C71.6,3.8,71.9,4.3,72,5h-1.2c-0.1-0.4-0.3-0.7-0.5-0.8C70,4,69.6,3.9,69.1,3.9
			s-0.8,0.1-1,0.2c-0.3,0.1-0.4,0.3-0.4,0.6c0,0.3,0.2,0.5,0.5,0.6c0.2,0.1,0.6,0.2,1.2,0.4c0.9,0.2,1.6,0.5,1.9,0.6
			c0.6,0.3,0.9,0.8,0.9,1.3c0,0.6-0.3,1-0.8,1.3s-1.2,0.5-2.1,0.5S67.7,9.3,67.2,9c-0.6-0.4-0.9-0.9-1-1.7h1.2
			c0.1,0.5,0.3,0.8,0.6,1c0.2,0.2,0.7,0.3,1.2,0.3s0.9-0.1,1.2-0.2c0.3-0.2,0.5-0.4,0.5-0.6c0-0.3-0.2-0.6-0.7-0.8
			c-0.2-0.1-0.6-0.2-1.4-0.4c-0.9-0.2-1.4-0.4-1.7-0.5c-0.6-0.3-0.8-0.7-0.8-1.2c0-0.6,0.3-1,0.8-1.3s1.1-0.5,1.9-0.5
			C70,3,70.6,3.2,71.1,3.5"/>
		<path id="Fill-5" class="st0" d="M75.6,5.8c-0.2,0.2-0.3,0.4-0.4,0.8h2.7c-0.1-0.7-0.6-1-1.4-1C76.1,5.6,75.8,5.6,75.6,5.8
			 M78.4,5.5C78.8,6,79,6.6,79,7.4h-3.9c0,0.4,0.2,0.7,0.4,1c0.2,0.2,0.5,0.3,1,0.3c0.3,0,0.6-0.1,0.9-0.2c0.2-0.1,0.3-0.3,0.5-0.5
			H79c-0.1,0.4-0.4,0.8-0.7,1c-0.5,0.3-1,0.5-1.7,0.5c-0.8,0-1.4-0.2-1.8-0.6c-0.5-0.4-0.7-1-0.7-1.7s0.2-1.2,0.7-1.7
			c0.4-0.5,1.1-0.7,1.8-0.7C77.3,4.7,78,5,78.4,5.5"/>
		<path id="Fill-7" class="st0" d="M86,4.6c-0.4,0.4-0.6,1-0.6,1.7S85.6,7.6,86,8s1,0.6,1.7,0.6c0.8,0,1.4-0.2,1.8-0.6
			c0.4-0.4,0.6-1,0.6-1.7S89.9,5,89.5,4.6c-0.4-0.4-1-0.6-1.7-0.6C87,3.9,86.4,4.1,86,4.6 M90.3,4c0.6,0.6,0.9,1.3,0.9,2.3
			c0,0.9-0.3,1.7-0.9,2.3s-1.5,0.9-2.6,0.9s-2-0.3-2.6-0.9c-0.6-0.6-0.9-1.3-0.9-2.3c0-0.9,0.3-1.7,0.9-2.3s1.5-0.9,2.6-0.9
			C88.9,3,89.7,3.3,90.3,4"/>
		<path id="Fill-9" class="st0" d="M97.5,6.6v2.8h-1.1V6.7c0-0.7-0.4-1.1-1.2-1.1c-0.3,0-0.5,0.1-0.7,0.3c-0.2,0.2-0.4,0.5-0.4,0.8
			v2.7H93V4.9h1.1v0.5c0.2-0.2,0.4-0.4,0.7-0.5c0.3-0.1,0.5-0.2,0.9-0.2C96.9,4.7,97.5,5.4,97.5,6.6"/>
		<polygon id="Fill-11" class="st0" points="101.3,3.2 102.4,3.2 102.4,8.5 106.3,8.5 106.3,9.3 101.3,9.3 		"/>
		<path id="Fill-13" class="st0" d="M107.3,9.3h1.1V4.9h-1.1V9.3z M108.5,3.2c0.1,0.1,0.2,0.3,0.2,0.5c0,0.2-0.1,0.4-0.2,0.5
			s-0.3,0.2-0.6,0.2c-0.2,0-0.4-0.1-0.6-0.2c-0.1-0.1-0.2-0.3-0.2-0.5c0-0.2,0.1-0.3,0.2-0.5c0.2-0.1,0.3-0.2,0.6-0.2
			C108.1,3,108.3,3.1,108.5,3.2L108.5,3.2z"/>
		<path id="Fill-15" class="st0" d="M114.5,6.6v2.8h-1.1V6.7c0-0.7-0.4-1.1-1.2-1.1c-0.3,0-0.5,0.1-0.7,0.3
			c-0.2,0.2-0.4,0.5-0.4,0.8v2.7H110V4.9h1.1v0.5c0.2-0.2,0.4-0.4,0.7-0.5c0.3-0.1,0.5-0.2,0.9-0.2C113.9,4.7,114.5,5.4,114.5,6.6"
			/>
		<path id="Fill-16" class="st0" d="M117.1,5.8c-0.2,0.2-0.3,0.4-0.4,0.8h2.7c-0.1-0.7-0.6-1.1-1.4-1.1
			C117.6,5.6,117.3,5.6,117.1,5.8 M119.9,5.5c0.4,0.5,0.6,1.1,0.6,1.9h-3.9c0,0.4,0.2,0.7,0.4,1c0.2,0.2,0.5,0.3,1,0.3
			c0.3,0,0.6-0.1,0.9-0.2c0.2-0.1,0.3-0.3,0.5-0.5h1.1c-0.1,0.4-0.4,0.8-0.7,1c-0.5,0.3-1,0.5-1.7,0.5c-0.8,0-1.4-0.2-1.8-0.6
			c-0.5-0.4-0.7-1-0.7-1.7s0.2-1.2,0.7-1.7c0.4-0.5,1.1-0.7,1.8-0.7C118.8,4.7,119.5,5,119.9,5.5"/>
		<path id="Fill-17" class="st0" d="M68.8-8.5c0-0.3,0.3-0.5,0.6-0.6h1.9v2.4h-2.4L68.8-8.5L68.8-8.5z M78.9-10.7l1-1.4
			c0-0.1,0.1-0.2,0.1-0.2v-1c0-0.3-0.2-0.5-0.5-0.6h-9.1c0.1-0.3,0.1-0.6,0.1-0.9l0,0h-3.3c-0.3,1.4-1.1,2.5-2.1,2.9v1h0.1
			c1.6,0,3-0.5,4-1.3h7l-1.1,1.5h-8.4c-0.7,0-1.2,0.5-1.2,1.2V-9v2.4v1.7v1.8v0.5c0,0.6,0.6,1.2,1.2,1.2h2.1h11.3l0.6-1.7H69.4
			c-0.3,0-0.6-0.3-0.6-0.6v-1.2h7.3l0.5-1.7h-2.1V-9h1.8c0.3,0,0.5,0.3,0.6,0.5v1.9v1.7h3.3v-4v-0.8V-10c0-0.3-0.3-0.6-0.6-0.6
			L78.9-10.7z"/>
		<polygon id="Fill-18" class="st0" points="95.6,-3.3 95.6,-6.7 98.2,-6.7 98.9,-8.4 95.6,-8.4 95.6,-11 92.3,-11 92.3,-8.4 
			88.9,-8.4 88.9,-6.7 92.3,-6.7 92.3,-3.3 88.9,-3.3 88.9,-1.6 99.3,-1.6 99.3,-3.3 		"/>
		<path id="Fill-19" class="st0" d="M90.6-11.9h8.7v-1.7h-7.8c0.1-0.4,0.3-0.8,0.3-1.2h-3.9c-0.1,0.4-0.2,0.8-0.4,1.2h-3.9v1.7h2.7
			c-0.8,0.9-1.8,1.7-3,2.2v1.9C83.9-7.9,84.4-8,85-8.2v6.6h3.3v-8.1C89.2-10.3,90-11.1,90.6-11.9"/>
		<path id="Fill-20" class="st0" d="M57.9-8.2h-6.6V-9c0-0.3,0.3-0.6,0.6-0.6h5.6C57.8-9.6,58-9.3,58-9L57.9-8.2L57.9-8.2z M62-12.2
			v-1.6h-7.6c0.1-0.3,0.2-0.7,0.3-1h-3.9c-0.1,0.3-0.2,0.7-0.3,1h-4.4v1.6h3.4c-0.8,1-2,1.9-3.3,2.5v1.9c0.6-0.1,1.2-0.2,1.7-0.4
			v6.7h3.4v-2.2H57l0.6-1.6h-6.3v-1.3h6.6v1.3v2.1c0,0.3-0.2,0.6-0.5,0.6h-0.5v1.1H58h1.7h0.5c0.6,0,1.2-0.6,1.2-1.2v-4v-1.6v-1.3
			V-10c0-0.7-0.5-1.2-1.2-1.2h-7.3c0.3-0.3,0.6-0.7,0.8-1.1H62V-12.2z"/>
		<polygon id="Fill-21" class="st0" points="102.3,-1.8 107.7,-2.3 108.1,-4.2 102.3,-3.6 		"/>
		<path id="Fill-22" class="st0" d="M117.7-3c-0.3,0-0.5-0.2-0.6-0.4l0,0v0.1l-0.5-1.4c0.5-0.2,1-0.4,1.7-0.7v-2.2
			c0,0-1,0.4-2.4,0.9l-0.5-1.2l2.9-0.2v-1.8l-3.5,0.2l-0.5-1.4l3.8-0.2V-13h-0.8v-1.2h-2.4v1.4l-1.3,0.1l-0.8-2.2h-2.9l0.9,2.4
			l-2,0.1v1.7l2.6-0.2l0.5,1.4l-3.1,0.1v1.8l3.9-0.2l0.7,1.9c-1.6,0.5-3.3,1-4.6,1.2V-3c2.7-0.5,4.2-0.7,5.3-0.9l0.7,1.9
			c0.1,0.2,0.3,0.4,0.6,0.4h2.4h0.2l0.5-1.3h-0.8V-3z"/>
		<path id="Fill-23" class="st0" d="M108.4-10.4h-2.5c-0.1,0.2-0.2,0.4-0.3,0.5h-0.8c1.7-1.9,2.5-4.9,2.5-4.9h-3
			c-0.2,1.8-1.3,3.8-1.8,4.6l0,0c-0.1,0.2-0.2,0.4-0.2,0.5v1.5h2.3c-0.9,1.1-1.7,1.9-2.1,2.2c-0.1,0.1-0.2,0.2-0.2,0.4v1.2l5.4-0.6
			l0.4-1.6l-2.4,0.2C107.8-8.1,108.4-10.4,108.4-10.4"/>
		<path id="Fill-24" class="st0" d="M27.6-8.2c-1.1-0.4-2.4-0.6-2.9-1.1c-0.6-0.4-0.8-0.9-0.8-1.6c0-1.5,0.8-2.2,2.5-2.2
			c0.3,0,0.7,0.1,1,0.3s0.7,0.4,1,0.7c0.7,0.8,0.8,1.7,0.9,2.1l1.5,0.1L30.6-13c-0.9-0.6-2.6-0.9-4-0.9c-0.7,0-1.3,0.1-1.9,0.3
			s-1.1,0.4-1.5,0.7s-0.8,0.7-1,1.2c-0.3,0.5-0.5,1.1-0.5,1.9c0,0.8,0.1,1.6,0.9,2.4c0.6,0.7,1.9,1.5,3.5,2c2.2,0.8,3.4,1.3,3.4,2.6
			c0,0.7-0.2,1.2-0.6,1.6c0.4,0.3,0.7,0.9,0.8,1c-0.2-0.1-0.1-0.1-0.1-0.2C30.1-0.8,30.5-1.1,31-2c0.3-0.5,0.5-1.4,0.5-2
			C31.5-5.7,30.2-7.2,27.6-8.2 M26.5-0.3c-0.9,0-1.7-0.4-2.5-1.1s-0.9-1.8-1.2-3h-1.7l0.4,3.9c1.1,0.6,3,1.1,4.6,1.1
			c0.6,0,1.1-0.1,1.5-0.1c0-0.2-0.2-0.7-0.4-0.9C27-0.4,26.8-0.3,26.5-0.3"/>
		<path id="Fill-25" class="st0" d="M23.6,1.8h6.1c0-0.5-0.1-1.1-0.3-1.5c-0.2-0.4-0.4-0.9-0.7-1.1c-0.3-0.3-0.9-1-2.5-1
			c-0.8,0-1.3,0.1-1.9,0.4c0.2,0.2,0.5,0.4,0.8,0.6C25.4-1,25.7-1,26.1-1c0.5,0,0.9,0.1,1.2,0.4c0.3,0.3,0.4,0.6,0.5,1
			c0,0.2,0.1,0.3,0,0.4c0,0.1-0.1,0.2-0.2,0.2c-0.1,0.1-0.2,0.1-0.4,0.1c-0.2,0-0.3,0-0.6,0h-3.1c0-0.2,0.1-0.4,0.2-0.6
			c-0.5,0-1.1-0.2-1.5-0.3c-0.3,0.5-0.7,1.2-0.7,2.4c0,1,0.3,1.9,1.1,2.8c0.4,0.5,1,0.8,1.5,1c1,0.4,2.6,0.5,3.7-0.2
			C28.2,6,28.6,5.6,29,5.3c0.3-0.3,0.5-0.6,0.5-0.6l0-0.8c-0.7,1-1.9,1.5-3.2,1.3c-1.4-0.2-2.5-1.3-2.7-2.6
			C23.6,2.4,23.6,2.2,23.6,1.8C23.6,1.9,23.6,1.8,23.6,1.8L23.6,1.8L23.6,1.8"/>
		<path id="Fill-27" class="st0" d="M40-16.2c-1.2-0.5-2.5,0.1-3.1,1.3l0,0c-0.1,0.2-0.4,1-0.4,2.9c0,1.5-0.1,8.9-0.1,12.9
			C36.4,4.3,34,6,34,6s2-1.8,2-5v-15.8l0,0c0-0.2-0.1-0.3-0.3-0.3s-0.3,0.1-0.3,0.3l0,0v16c0,3.2-1.9,4.6-1.9,4.6S35,4.3,35,1.3
			c0-3.6-0.1-11-0.1-13.2s-0.4-2.9-0.4-2.9c-0.2-0.5-0.5-0.8-1-1c-1.1-0.5-2.4,0.7-1.7,1.8c0.4-0.3,0.8-0.3,1.1-0.2
			c0.1,0.1,1.3,0.4,1.3,3.1V0.8c0,4.5-3.6,8.1-8.1,8.1S18,5.3,18,0.8v-12.1c0,0,0,0,0-0.1c0-2.3,1.3-3,1.3-3V-15h-5.8v0.6
			c0,0,1.2,0.8,1.2,3v0.1V0.4c0,6.2,5,11.2,11.2,11.2s11.2-5,11.2-11.2V-11c0-1.5,0.6-3.2,1.4-3.3c-0.3-1.1,0.4-1.8,1.2-1.6
			c0.6,0.1,1.5,0.8,1.2,1.5c-0.3-0.4-0.8,0-0.5,0.3C41.4-13.3,41.9-15.5,40-16.2"/>
	</g>
</g>
</svg>
