<?xml version="1.0" encoding="utf-8"?>
<!-- Generator: Adobe Illustrator 19.0.0, SVG Export Plug-In . SVG Version: 6.00 Build 0)  -->
<svg version="1.1" baseProfile="basic" id="图层_1"
	 xmlns="http://www.w3.org/2000/svg" xmlns:xlink="http://www.w3.org/1999/xlink" x="0px" y="0px" viewBox="0 0 93.4 33.7"
	 xml:space="preserve">
<g id="XMLID_911_">
	<path id="XMLID_914_" fill="#8188A5" d="M88.2,0l-70,0c-0.9,0-1.7,0.2-2.4,0.6c-0.1,0-0.3,0.1-0.4,0.2c0,0-0.1,0.1-0.1,0.1
		c0,0-0.1,0.1-0.2,0.1L15,1.2c-0.3,0.2-0.5,0.5-0.7,0.7L0.5,15.6c-0.7,0.7-0.7,1.8,0,2.4l1.2,1.2l1.8,1.8l10.7,10.7
		c0.2,0.3,0.5,0.5,0.7,0.7l0.1,0.1c0,0,0.1,0.1,0.2,0.1c0,0,0.1,0.1,0.1,0.1c0.1,0.1,0.2,0.2,0.4,0.2c0.7,0.4,1.5,0.6,2.4,0.6l70,0
		c2.9,0,5.2-2.3,5.2-5.2V5.2C93.4,2.3,91.1,0,88.2,0L88.2,0z"/>
	<path id="XMLID_913_" fill="#F9F9F9" d="M90.5,6.5l-0.5,21c0,1.9-1.5,3.4-3.4,3.4l-68.8-0.4c-0.1-0.1-0.2-0.2-0.3-0.3L15,27.7
		l-1.9-1.9l0,0l-3.8-3.8l-5.1-5.1l7.8-7.8L13,8l0,0l1-1l3.4-3.4c0.1-0.1,0.3-0.3,0.4-0.4l69.1,0C89,3.1,90.5,4.6,90.5,6.5L90.5,6.5z
		"/>
	<path id="XMLID_912_" fill="#8188A5" d="M12.8,14.3c-0.7,0-1.4,0.2-2,0.7c-1,1-1,2.6,0,3.6c0.6,0.6,1.3,0.8,2.1,0.7l0.2,0
		c0.5-0.1,1-0.3,1.4-0.7c1-1,1-2.6,0-3.6c-0.4-0.4-0.9-0.6-1.4-0.7L12.8,14.3L12.8,14.3z"/>
</g>
</svg>
