<?xml version="1.0" encoding="utf-8"?>
<!-- Generator: Adobe Illustrator 19.0.0, SVG Export Plug-In . SVG Version: 6.00 Build 0)  -->
<svg version="1.1" baseProfile="basic" id="图层_1"
	 xmlns="http://www.w3.org/2000/svg" xmlns:xlink="http://www.w3.org/1999/xlink" x="0px" y="0px" viewBox="0 0 218.3 127.2"
	 xml:space="preserve">
<g id="XMLID_644_">
	<path id="XMLID_649_" fill="#FF4C2E" d="M218.3,50.2c0-0.1,0-0.2,0-0.3c0-25.3-47.9-45.1-109.1-45.1S0,24.7,0,49.9
		c0,0.6,0,1.1,0.1,1.7v22.5C0,75.3,0,76.7,0,78.3l0,0.6C0,104.2,47.9,124,109.1,124c61.1,0,108.9-19.7,109.1-44.9h0L218.3,50.2
		L218.3,50.2z"/>
	<path id="XMLID_648_" fill="#F9F9F9" d="M109.1,10.9C53.2,10.9,6,28.8,6,49.9C6,71.1,53.2,89,109.1,89
		c55.9,0,103.1-17.9,103.1-39.1C212.3,28.8,165,10.9,109.1,10.9z"/>
	<path id="XMLID_645_" fill="#FF4C2E" d="M109.1,77.5c-22.3,0-43.3-2.6-59.1-7.4c-17-5.2-25.9-12.1-25.9-20.1s9-15,25.9-20.1
		c15.8-4.8,36.8-7.4,59.1-7.4s43.3,2.6,59.1,7.4c17,5.2,25.9,12.1,25.9,20.1s-9,15-25.9,20.1C152.4,74.8,131.4,77.5,109.1,77.5z
		 M109.1,27.4c-47.1,0-80,11.9-80,22.6s32.9,22.6,80,22.6c47.1,0,80-11.9,80-22.6S156.3,27.4,109.1,27.4z"/>
</g>
</svg>
