<?xml version="1.0" encoding="utf-8"?>
<!-- Generator: Adobe Illustrator 19.0.0, SVG Export Plug-In . SVG Version: 6.00 Build 0)  -->
<svg version="1.1" baseProfile="basic" id="图层_1"
	 xmlns="http://www.w3.org/2000/svg" xmlns:xlink="http://www.w3.org/1999/xlink" x="0px" y="0px" viewBox="0 0 248 237.1"
	 xml:space="preserve">
<g id="XMLID_26009_">
	<g id="XMLID_26012_">
		<g id="XMLID_26013_">
			<path fill="#4B5366" d="M4.5,69.9l5,1l-0.9,6.1c-0.1,0.2,0.2,0.3,0.2,0.5l-0.9,4.4c0,0.1-0.4,0.2-0.4,0.4l-1.7,6.6l-4.9-1L0,91.8
				l4.9,1c1.5,0.3,3.8-1.3,4.2-3.4l0.4-2.1c0,0.1,0,0.7,0.4,0.8l32.6,6.7c2.2,0.4,4.8-1.9,5.4-4.7l7.9-38.3L78,56.3
				c1.2,0.3,2.5-0.4,3.5-1.7l2.1-2.9l11.7,2.4c1.8,0.4,3.8-2.1,4.2-4.4l5.7-27.9l-1.5-0.3c0.1,0,0.4-2.1,0.2-3
				c-0.3-1.5-1.2-2.9-2.4-3.2l-76-15.6c-1.9-0.4-4,2-4.6,4.6L14,37.6c-0.5,2.5,0.5,5.7,2.4,6.1l28.1,5.8c-0.1,0,0.2,0.2,0.1,0.8
				l-5.4,26.5c-0.2,0.8-1.3,1.9-2,1.7l-24.2-5c-0.4-0.1-0.4-0.5-0.5-0.4l0.5-2.2c0.4-2-1.2-3.3-2.7-3.6l-5-1L4.5,69.9L4.5,69.9z
				 M101,19.9c0,0.1,0.1,0.3-0.1,0.6l-7.4,10.3L21.3,16.1l2.3-11.2c0.1-0.5,0.7-1.5,1-1.5l76,15.6C101,19.1,101,19.8,101,19.9
				L101,19.9z M96,50.5l-10.1-2.1l15.8-23.2l-4.9,23.9C96.6,49.5,96.2,50.5,96,50.5L96,50.5z M79.6,51.5c-0.2,0.3-0.6,1.2-0.8,1.2
				l-25.1-5.1l-4.7-1L17.1,40c-0.4-0.1-0.5-1.3-0.4-1.8l3.8-18.5l70.7,14.5L79.6,51.5L79.6,51.5z M10.7,84.5
				c-0.6-0.1-0.3-1.2-0.1-2.1l0.9-4.4c0.2-0.8,0.1-1,0.7-0.9l24.2,5c2.2,0.4,4.9-2,5.5-4.8l5.4-26.5c0.2-0.8,0.3-0.7,0.9-0.6l4.8,1
				l-7.9,38.3c-0.2,0.8-1.3,1.8-1.9,1.7L10.7,84.5L10.7,84.5z M10.7,84.5"/>
		</g>
	</g>
	<g id="XMLID_26011_">
		<path id="XMLID_1223_" fill="#9A9A9A" d="M30.5,237.1l-3.9-0.8l1.6-7.8l3.9,0.8L30.5,237.1z M33.7,221.4l-3.9-0.8l1.6-7.8l3.9,0.8
			L33.7,221.4z M37,205.7l-3.9-0.8l1.6-7.8l3.9,0.8L37,205.7z M40.2,190.1l-3.9-0.8l1.6-7.8l3.9,0.8L40.2,190.1z M43.4,174.4
			l-3.9-0.8l1.6-7.8l3.9,0.8L43.4,174.4z M46.6,158.7l-3.9-0.8l1.6-7.8l3.9,0.8L46.6,158.7z M49.8,143l-3.9-0.8l1.6-7.8l3.9,0.8
			L49.8,143z M53,127.4l-3.9-0.8l1.6-7.8l3.9,0.8L53,127.4z M56.3,111.7l-3.9-0.8l1.6-7.8l3.9,0.8L56.3,111.7z"/>
	</g>
	<g id="XMLID_26010_">
		<path id="XMLID_1212_" fill="#9A9A9A" d="M247.2,94.2l-7.8-1.6l0.8-3.9l7.8,1.6L247.2,94.2z M231.6,91l-7.8-1.6l0.8-3.9l7.8,1.6
			L231.6,91z M215.9,87.8l-7.8-1.6l0.8-3.9l7.8,1.6L215.9,87.8z M200.2,84.5l-7.8-1.6l0.8-3.9l7.8,1.6L200.2,84.5z M184.5,81.3
			l-7.8-1.6l0.8-3.9l7.8,1.6L184.5,81.3z M168.9,78.1l-7.8-1.6l0.8-3.9l7.8,1.6L168.9,78.1z M153.2,74.9l-7.8-1.6l0.8-3.9L154,71
			L153.2,74.9z M137.5,71.7l-7.8-1.6l0.8-3.9l7.8,1.6L137.5,71.7z M121.8,68.5l-7.8-1.6l0.8-3.9l7.8,1.6L121.8,68.5z"/>
	</g>
</g>
</svg>
