<?xml version="1.0" encoding="utf-8"?>
<!-- Generator: Adobe Illustrator 19.0.0, SVG Export Plug-In . SVG Version: 6.00 Build 0)  -->
<svg version="1.1" baseProfile="basic" id="图层_1"
	 xmlns="http://www.w3.org/2000/svg" xmlns:xlink="http://www.w3.org/1999/xlink" x="0px" y="0px" viewBox="0 0 265.4 202.5"
	 xml:space="preserve">
<g id="XMLID_1042_">
	<g id="XMLID_1065_">
		<g id="XMLID_1066_">
			<path id="XMLID_1067_" fill="#4B5366" d="M73.3,154.8l2.6,2.6l3.6-3.6c1.1-1.1,1.7-3.1,0.3-4.5l-1.6-1.6c0.1,0.1-0.1-0.3,0.2-0.6
				l17.5-17.5c0.5-0.5,2-0.2,2.6,0.4l19.1,19.1c0.4,0.4,0.3,0.8,0.4,0.7l-20.3,20.3c-1.4,1.4-0.5,4.6,1.4,6.4l24.1,24.1
				c1.8,1.8,4.9,2.7,6.3,1.3l54.8-54.8c0.9-0.9,0.9-2.5,0.3-4c-0.3-0.9-1.8-2.5-1.8-2.4l1.1-1.1l-20.1-20.1c-1.7-1.7-4.7-2.6-6-1.4
				l-8.5,8.5l-3.3-1.3c-1.5-0.6-2.9-0.4-3.8,0.5l-16,16L98.4,114c-2.1-2.1-5.6-2.5-7.1-1l-23.5,23.5c-0.3,0.3,0,0.8,0.1,0.9
				l-1.5-1.5c-1.5-1.5-4.3-1.6-5.4-0.5l-3.5,3.5l2.9,2.9l3.5-3.5l5,4.5c0.1,0.1,0.4,0,0.5,0.1l3.2,3.2c0.2,0.2,0,0.4,0.2,0.5
				l4.1,4.5L73.3,154.8L73.3,154.8z M181.4,143.4c0.1,0.1,0.4,0.7,0.2,1l-54.8,54.8c-0.3,0.3-1.3-0.3-1.7-0.7l-8.1-8.1l52.2-52.2
				l11.8,4.6C181.4,143.1,181.4,143.2,181.4,143.4L181.4,143.4z M160.4,120.7c0.2-0.2,1.1,0.5,1.3,0.7l17.3,17.3L153,128
				L160.4,120.7L160.4,120.7z M146.1,128.8l19.2,8l-51,51L101,174.5c-0.4-0.4-1-1.5-0.7-1.7l23-23l3.4-3.4l18.1-18.1
				C144.9,128.1,145.8,128.7,146.1,128.8L146.1,128.8z M70.4,139.2L94,115.7c0.5-0.5,1.9-0.3,2.5,0.3l27.7,27.7l-3.5,3.5
				c-0.5,0.5-0.5,0.6-1.1,0L100.4,128c-2.1-2.1-5.7-2.6-7.2-1l-17.5,17.5c-0.5,0.5-0.5,0.3-1.1-0.3l-3.2-3.2
				C70.9,140.4,70,139.7,70.4,139.2L70.4,139.2z M70.4,139.2"/>
		</g>
	</g>
	<g id="XMLID_1054_">
		<path id="XMLID_1055_" fill="#9A9A9A" d="M8.6,6.5L5.8,9.4L0.2,3.7L3,0.9L8.6,6.5z M20,17.9l-2.8,2.8L11.5,15l2.8-2.8L20,17.9z
			 M31.3,29.2L28.4,32l-5.7-5.7l2.8-2.8L31.3,29.2z M42.6,40.5l-2.8,2.8l-5.7-5.7l2.8-2.8L42.6,40.5z M53.9,51.8l-2.8,2.8L45.4,49
			l2.8-2.8L53.9,51.8z M65.2,63.1l-2.8,2.8l-5.7-5.7l2.8-2.8L65.2,63.1z M76.5,74.4l-2.8,2.8L68,71.6l2.8-2.8L76.5,74.4z M87.8,85.7
			L85,88.6l-5.7-5.7l2.8-2.8L87.8,85.7z M99.2,97.1l-2.8,2.8l-5.7-5.7l2.8-2.8L99.2,97.1z"/>
	</g>
	<g id="XMLID_1043_">
		<path id="XMLID_1044_" fill="#9A9A9A" d="M265.4,3.7l-5.7,5.7l-2.8-2.8l5.7-5.7L265.4,3.7z M254.1,15l-5.7,5.7l-2.8-2.8l5.7-5.7
			L254.1,15z M242.8,26.3l-5.7,5.7l-2.8-2.8l5.7-5.7L242.8,26.3z M231.5,37.7l-5.7,5.7l-2.8-2.8l5.7-5.7L231.5,37.7z M220.1,49
			l-5.7,5.7l-2.8-2.8l5.7-5.7L220.1,49z M208.8,60.3l-5.7,5.7l-2.8-2.8l5.7-5.7L208.8,60.3z M197.5,71.6l-5.7,5.7l-2.8-2.8l5.7-5.7
			L197.5,71.6z M186.2,82.9l-5.7,5.7l-2.8-2.8l5.7-5.7L186.2,82.9z M174.9,94.2l-5.7,5.7l-2.8-2.8l5.7-5.7L174.9,94.2z"/>
	</g>
</g>
</svg>
