<?xml version="1.0" encoding="utf-8"?>
<!-- Generator: Adobe Illustrator 19.0.0, SVG Export Plug-In . SVG Version: 6.00 Build 0)  -->
<svg version="1.1" baseProfile="basic" id="图层_1"
	 xmlns="http://www.w3.org/2000/svg" xmlns:xlink="http://www.w3.org/1999/xlink" x="0px" y="0px" viewBox="0 0 93.4 33.7"
	 xml:space="preserve">
<g id="XMLID_764_">
	<path id="XMLID_33965_" fill="#8188A5" d="M5.2,33.7l70,0c0.9,0,1.7-0.2,2.4-0.6c0.1,0,0.3-0.1,0.4-0.2c0,0,0.1-0.1,0.1-0.1
		c0,0,0.1-0.1,0.2-0.1l0.1-0.1c0.3-0.2,0.5-0.5,0.7-0.7l13.7-13.7c0.7-0.7,0.7-1.8,0-2.4l-1.2-1.2l-1.8-1.8L79.2,1.9
		c-0.2-0.3-0.5-0.5-0.7-0.7L78.3,1c0,0-0.1-0.1-0.2-0.1c0,0-0.1-0.1-0.1-0.1c-0.1-0.1-0.2-0.2-0.4-0.2C76.9,0.2,76.1,0,75.2,0l-70,0
		C2.3,0,0,2.3,0,5.2l0,23.4C0,31.4,2.3,33.7,5.2,33.7L5.2,33.7z"/>
	<path id="XMLID_33964_" fill="#F9F9F9" d="M2.9,27.2l0.5-21c0-1.9,1.5-3.4,3.4-3.4l68.8,0.4c0.1,0.1,0.2,0.2,0.3,0.3L78.4,6
		l1.9,1.9l0,0l3.8,3.8l5.1,5.1l-7.8,7.8l-1.1,1.1l0,0l-1,1l-3.4,3.4c-0.1,0.1-0.3,0.3-0.4,0.4l-69.1,0C4.4,30.6,2.9,29.1,2.9,27.2
		L2.9,27.2z"/>
	<path id="XMLID_33968_" fill="#8188A5" d="M80.6,19.4c0.7,0,1.4-0.2,2-0.7c1-1,1-2.6,0-3.6c-0.6-0.6-1.3-0.8-2.1-0.7l-0.2,0
		c-0.5,0.1-1,0.3-1.4,0.7c-1,1-1,2.6,0,3.6c0.4,0.4,0.9,0.6,1.4,0.7L80.6,19.4L80.6,19.4z"/>
</g>
</svg>
