<?xml version="1.0" encoding="utf-8"?>
<!-- Generator: Adobe Illustrator 19.0.0, SVG Export Plug-In . SVG Version: 6.00 Build 0)  -->
<svg version="1.1" baseProfile="basic" id="图层_1"
	 xmlns="http://www.w3.org/2000/svg" xmlns:xlink="http://www.w3.org/1999/xlink" x="0px" y="0px" viewBox="0 0 1440 63"
	 xml:space="preserve">
<g id="XMLID_1_">
	<path id="XMLID_21_" fill="#4B5366" d="M104.5,17h495.9c1.7,0,3-1.3,3-3s-1.3-3-3-3H104.5c-1.7,0-3,1.3-3,3S102.8,17,104.5,17z"/>
	<path id="XMLID_22_" fill="#4B5366" d="M600.4,46H104.5c-1.7,0-3,1.3-3,3s1.3,3,3,3h495.9c1.7,0,3-1.3,3-3S602.1,46,600.4,46z"/>
	<path id="XMLID_26_" fill="#4B5366" d="M1436.1,0h-75.3c-1.6,0-3,0.7-3.6,2.1c-0.7,1.4-0.4,3.1,0.6,4.3l19.4,22.6h-588l19.4-22.7
		c1-1.2,1.3-2.7,0.6-4.1C808.4,0.8,807,0,805.4,0h-75.3c-2.2,0-4.1,1.4-4.1,3.6V27h-12V3.6c0-2.2-1.7-3.6-3.9-3.6h-75.3
		c-1.6,0-3,0.7-3.6,2.1c-0.7,1.4-0.4,3.1,0.6,4.3L651.1,29h-588L82.5,6.3c1-1.2,1.3-2.7,0.6-4.1C82.4,0.8,81,0,79.4,0H4.1
		C1.9,0,0,1.4,0,3.6v55.6C0,61.4,1.9,63,4.1,63h75.3c1.6,0,3-0.8,3.6-2.2c0.7-1.4,0.4-2.9-0.6-4.1L63.7,35h586.8l-18.7,21.7
		c-1,1.2-1.3,2.7-0.6,4.1c0.7,1.4,2.1,2.2,3.6,2.2h75.3c2.2,0,3.9-1.6,3.9-3.8V35h12v24.2c0,2.2,1.9,3.8,4.1,3.8h75.3
		c1.6,0,3-0.8,3.6-2.2c0.7-1.4,0.4-2.9-0.6-4.1L789.7,35h586.8l-18.7,21.7c-1,1.2-1.3,2.7-0.6,4.1c0.7,1.4,2.1,2.2,3.6,2.2h75.3
		c2.2,0,3.9-1.6,3.9-3.8V3.6C1440,1.4,1438.3,0,1436.1,0z M70.7,55H8V8h62.7L52.6,29H33.1c-1.7,0-3,1.3-3,3s1.3,3,3,3h20.1L70.7,55z
		 M706,55h-62.5L661,35h18.7c1.7,0,3-1.3,3-3s-1.3-3-3-3h-18.1L643.5,8H706V55z M796.7,55H734V31.4c0,0,0,0,0,0s0,0,0,0V8h62.7
		l-18.2,21h-19.5c-1.7,0-3,1.3-3,3s1.3,3,3,3h20.1L796.7,55z M1432,55h-62.5l17.5-20h18.7c1.7,0,3-1.3,3-3s-1.3-3-3-3h-18.1
		l-18.2-21h62.5V55z"/>
	<path id="XMLID_30_" fill="#4B5366" d="M830.5,17h495.9c1.7,0,3-1.3,3-3s-1.3-3-3-3H830.5c-1.7,0-3,1.3-3,3S828.8,17,830.5,17z"/>
	<path id="XMLID_31_" fill="#4B5366" d="M1326.4,46H830.5c-1.7,0-3,1.3-3,3s1.3,3,3,3h495.9c1.7,0,3-1.3,3-3S1328.1,46,1326.4,46z"
		/>
</g>
</svg>
