<?xml version="1.0" encoding="utf-8"?>
<!-- Generator: Adobe Illustrator 19.0.0, SVG Export Plug-In . SVG Version: 6.00 Build 0)  -->
<svg version="1.1" baseProfile="basic" id="图层_1"
	 xmlns="http://www.w3.org/2000/svg" xmlns:xlink="http://www.w3.org/1999/xlink" x="0px" y="0px" viewBox="0 0 265.4 202.5"
	 xml:space="preserve">
<g id="XMLID_12187_">
	<g id="XMLID_32212_">
		<g id="XMLID_32210_">
			<path id="XMLID_1040_" fill="#4B5366" d="M73.3,48.6l3.6,3.6l-4.1,4.5c-0.2,0.2,0,0.3-0.2,0.5l-3.2,3.2c-0.1,0.1-0.4,0-0.5,0.1
				l-5,4.5l-3.5-3.5l-2.9,2.9L61,68c1.1,1.1,3.9,1,5.4-0.5l1.5-1.5c-0.1,0.1-0.4,0.6-0.1,0.9l23.5,23.5c1.6,1.6,5.1,1.1,7.1-1
				l27.7-27.7l16,16c0.9,0.9,2.3,1.1,3.8,0.5l3.3-1.3l8.5,8.5c1.3,1.3,4.3,0.3,6-1.4l20.1-20.1l-1.1-1.1c0,0,1.5-1.6,1.8-2.4
				c0.6-1.5,0.6-3.1-0.3-4L129.4,1.6c-1.4-1.4-4.5-0.5-6.3,1.3L99,26.9c-1.8,1.8-2.7,5-1.4,6.4L118,53.6c-0.1-0.1,0,0.3-0.4,0.7
				L98.4,73.4c-0.6,0.6-2.1,0.8-2.6,0.4L78.4,56.3c-0.3-0.3-0.1-0.7-0.2-0.6l1.6-1.6c1.4-1.4,0.8-3.5-0.3-4.5L76,45.9L73.3,48.6
				L73.3,48.6z M181.4,60c-0.1,0.1,0,0.3-0.5,0.5l-11.8,4.6L117,12.9l8.1-8.1c0.4-0.4,1.4-0.9,1.7-0.7L181.6,59
				C181.8,59.3,181.5,59.9,181.4,60L181.4,60z M160.4,82.8l-7.3-7.3L179,64.8L161.7,82C161.5,82.3,160.5,82.9,160.4,82.8L160.4,82.8
				z M146.1,74.6c-0.3,0.1-1.2,0.7-1.3,0.5L126.7,57l-3.4-3.4l-23-23c-0.3-0.3,0.4-1.4,0.7-1.7l13.3-13.3l51,51L146.1,74.6
				L146.1,74.6z M70.4,64.2c-0.5-0.5,0.4-1.2,1-1.8l3.2-3.2c0.6-0.6,0.6-0.8,1.1-0.3l17.5,17.5c1.6,1.6,5.2,1.1,7.2-1l19.1-19.1
				c0.6-0.6,0.6-0.4,1.1,0l3.5,3.5L96.4,87.4c-0.6,0.6-2,0.8-2.5,0.3L70.4,64.2L70.4,64.2z M70.4,64.2"/>
		</g>
	</g>
	<g id="XMLID_966_">
		<path id="XMLID_1006_" fill="#9A9A9A" d="M3,202.5l-2.8-2.8l5.7-5.7l2.8,2.8L3,202.5z M14.3,191.2l-2.8-2.8l5.7-5.7l2.8,2.8
			L14.3,191.2z M25.6,179.9l-2.8-2.8l5.7-5.7l2.8,2.8L25.6,179.9z M36.9,168.6l-2.8-2.8l5.7-5.7l2.8,2.8L36.9,168.6z M48.2,157.3
			l-2.8-2.8l5.7-5.7l2.8,2.8L48.2,157.3z M59.6,146l-2.8-2.8l5.7-5.7l2.8,2.8L59.6,146z M70.9,134.6l-2.8-2.8l5.7-5.7l2.8,2.8
			L70.9,134.6z M82.2,123.3l-2.8-2.8l5.7-5.7l2.8,2.8L82.2,123.3z M93.5,112l-2.8-2.8l5.7-5.7l2.8,2.8L93.5,112z"/>
	</g>
	<g id="XMLID_12189_">
		<path id="XMLID_995_" fill="#9A9A9A" d="M262.6,202.5l-5.7-5.7l2.8-2.8l5.7,5.7L262.6,202.5z M251.3,191.2l-5.7-5.7l2.8-2.8
			l5.7,5.7L251.3,191.2z M239.9,179.9l-5.7-5.7l2.8-2.8l5.7,5.7L239.9,179.9z M228.6,168.6l-5.7-5.7l2.8-2.8l5.7,5.7L228.6,168.6z
			 M217.3,157.3l-5.7-5.7l2.8-2.8l5.7,5.7L217.3,157.3z M206,146l-5.7-5.7l2.8-2.8l5.7,5.7L206,146z M194.7,134.6L189,129l2.8-2.8
			l5.7,5.7L194.7,134.6z M183.4,123.3l-5.7-5.7l2.8-2.8l5.7,5.7L183.4,123.3z M172.1,112l-5.7-5.7l2.8-2.8l5.7,5.7L172.1,112z"/>
	</g>
</g>
</svg>
