<?xml version="1.0" encoding="utf-8"?>
<!-- Generator: Adobe Illustrator 19.0.0, SVG Export Plug-In . SVG Version: 6.00 Build 0)  -->
<svg version="1.1" baseProfile="basic" id="图层_1"
	 xmlns="http://www.w3.org/2000/svg" xmlns:xlink="http://www.w3.org/1999/xlink" x="0px" y="0px" viewBox="0 0 958.8 514.8"
	 xml:space="preserve">
<g id="XMLID_1406_">
	<path id="XMLID_1520_" fill="#4B5366" d="M958.8,447.9C958.8,447.9,958.8,447.9,958.8,447.9c0-1.7-1.3-3-3-3h-20.5V3
		c0-1.7-1.3-3-3-3H907c-1.7,0-3,1.3-3,3v444.8c0,1.7,1.3,3,3,3h23.2v20.1h-6.4c-1.1,0-2.1,0.6-2.6,1.6h-7.5c-0.6,0-1,0.4-1,1
		s0.4,1,1,1h7.1v37.3c0,1.7,1.3,3,3,3h0c0,0,0,0,0,0h32c1.7,0,3-1.3,3-3c0,0,0,0,0,0V447.9z M929.2,444.8H910V6h19.2V444.8z
		 M952.8,508.8h-26v-31.8h5.4c1.7,0,3-1.3,3-3c0-0.9-0.4-1.7-1-2.2v-20.8h18.5V508.8z"/>
	<path id="XMLID_1526_" fill="#4B5366" d="M336.6,448.3c0-0.6-0.4-1-1-1h-8c-0.6,0-1,0.4-1,1s0.4,1,1,1h8
		C336.1,449.3,336.6,448.8,336.6,448.3z"/>
	<path id="XMLID_1527_" fill="#4B5366" d="M324.3,472.5h-8c-0.6,0-1,0.4-1,1s0.4,1,1,1h8c0.6,0,1-0.4,1-1S324.8,472.5,324.3,472.5z"
		/>
	<path id="XMLID_1528_" fill="#4B5366" d="M340.3,472.5h-8c-0.6,0-1,0.4-1,1s0.4,1,1,1h8c0.6,0,1-0.4,1-1S340.8,472.5,340.3,472.5z"
		/>
	<path id="XMLID_1529_" fill="#4B5366" d="M320.6,448.3c0-0.6-0.4-1-1-1h-8c-0.6,0-1,0.4-1,1s0.4,1,1,1h8
		C320.1,449.3,320.6,448.8,320.6,448.3z"/>
	<path id="XMLID_1530_" fill="#4B5366" d="M356.3,472.5h-8c-0.6,0-1,0.4-1,1s0.4,1,1,1h8c0.6,0,1-0.4,1-1S356.8,472.5,356.3,472.5z"
		/>
	<path id="XMLID_1531_" fill="#4B5366" d="M368.6,448.3c0-0.6-0.4-1-1-1h-8c-0.6,0-1,0.4-1,1s0.4,1,1,1h8
		C368.1,449.3,368.6,448.8,368.6,448.3z"/>
	<path id="XMLID_1532_" fill="#4B5366" d="M352.6,448.3c0-0.6-0.4-1-1-1h-8c-0.6,0-1,0.4-1,1s0.4,1,1,1h8
		C352.1,449.3,352.6,448.8,352.6,448.3z"/>
	<path id="XMLID_1533_" fill="#4B5366" d="M260.3,472.5h-8c-0.6,0-1,0.4-1,1s0.4,1,1,1h8c0.6,0,1-0.4,1-1S260.8,472.5,260.3,472.5z"
		/>
	<path id="XMLID_1534_" fill="#4B5366" d="M308.3,472.5h-8c-0.6,0-1,0.4-1,1s0.4,1,1,1h8c0.6,0,1-0.4,1-1S308.8,472.5,308.3,472.5z"
		/>
	<path id="XMLID_1535_" fill="#4B5366" d="M272.6,448.3c0-0.6-0.4-1-1-1h-8c-0.6,0-1,0.4-1,1s0.4,1,1,1h8
		C272.1,449.3,272.6,448.8,272.6,448.3z"/>
	<path id="XMLID_1536_" fill="#4B5366" d="M288.6,448.3c0-0.6-0.4-1-1-1h-8c-0.6,0-1,0.4-1,1s0.4,1,1,1h8
		C288.1,449.3,288.6,448.8,288.6,448.3z"/>
	<path id="XMLID_1537_" fill="#4B5366" d="M304.6,448.3c0-0.6-0.4-1-1-1h-8c-0.6,0-1,0.4-1,1s0.4,1,1,1h8
		C304.1,449.3,304.6,448.8,304.6,448.3z"/>
	<path id="XMLID_1538_" fill="#4B5366" d="M292.3,472.5h-8c-0.6,0-1,0.4-1,1s0.4,1,1,1h8c0.6,0,1-0.4,1-1S292.8,472.5,292.3,472.5z"
		/>
	<path id="XMLID_1539_" fill="#4B5366" d="M276.3,472.5h-8c-0.6,0-1,0.4-1,1s0.4,1,1,1h8c0.6,0,1-0.4,1-1S276.8,472.5,276.3,472.5z"
		/>
	<path id="XMLID_1540_" fill="#4B5366" d="M436.3,472.5h-8c-0.6,0-1,0.4-1,1s0.4,1,1,1h8c0.6,0,1-0.4,1-1S436.8,472.5,436.3,472.5z"
		/>
	<path id="XMLID_1541_" fill="#4B5366" d="M432.6,448.3c0-0.6-0.4-1-1-1h-8c-0.6,0-1,0.4-1,1s0.4,1,1,1h8
		C432.1,449.3,432.6,448.8,432.6,448.3z"/>
	<path id="XMLID_1542_" fill="#4B5366" d="M468.3,472.5h-8c-0.6,0-1,0.4-1,1s0.4,1,1,1h8c0.6,0,1-0.4,1-1S468.8,472.5,468.3,472.5z"
		/>
	<path id="XMLID_1543_" fill="#4B5366" d="M452.3,472.5h-8c-0.6,0-1,0.4-1,1s0.4,1,1,1h8c0.6,0,1-0.4,1-1S452.8,472.5,452.3,472.5z"
		/>
	<path id="XMLID_1544_" fill="#4B5366" d="M420.3,472.5h-8c-0.6,0-1,0.4-1,1s0.4,1,1,1h8c0.6,0,1-0.4,1-1S420.8,472.5,420.3,472.5z"
		/>
	<path id="XMLID_1545_" fill="#4B5366" d="M464.6,448.3c0-0.6-0.4-1-1-1h-8c-0.6,0-1,0.4-1,1s0.4,1,1,1h8
		C464.1,449.3,464.6,448.8,464.6,448.3z"/>
	<path id="XMLID_1546_" fill="#4B5366" d="M372.3,472.5h-8c-0.6,0-1,0.4-1,1s0.4,1,1,1h8c0.6,0,1-0.4,1-1S372.8,472.5,372.3,472.5z"
		/>
	<path id="XMLID_1547_" fill="#4B5366" d="M384.6,448.3c0-0.6-0.4-1-1-1h-8c-0.6,0-1,0.4-1,1s0.4,1,1,1h8
		C384.1,449.3,384.6,448.8,384.6,448.3z"/>
	<path id="XMLID_1548_" fill="#4B5366" d="M388.3,472.5h-8c-0.6,0-1,0.4-1,1s0.4,1,1,1h8c0.6,0,1-0.4,1-1S388.8,472.5,388.3,472.5z"
		/>
	<path id="XMLID_1549_" fill="#4B5366" d="M400.6,448.3c0-0.6-0.4-1-1-1h-8c-0.6,0-1,0.4-1,1s0.4,1,1,1h8
		C400.1,449.3,400.6,448.8,400.6,448.3z"/>
	<path id="XMLID_1550_" fill="#4B5366" d="M416.6,448.3c0-0.6-0.4-1-1-1h-8c-0.6,0-1,0.4-1,1s0.4,1,1,1h8
		C416.1,449.3,416.6,448.8,416.6,448.3z"/>
	<path id="XMLID_1551_" fill="#4B5366" d="M404.3,472.5h-8c-0.6,0-1,0.4-1,1s0.4,1,1,1h8c0.6,0,1-0.4,1-1S404.8,472.5,404.3,472.5z"
		/>
	<path id="XMLID_1552_" fill="#4B5366" d="M448.6,448.3c0-0.6-0.4-1-1-1h-8c-0.6,0-1,0.4-1,1s0.4,1,1,1h8
		C448.1,449.3,448.6,448.8,448.6,448.3z"/>
	<path id="XMLID_1553_" fill="#4B5366" d="M116.3,472.5h-8c-0.6,0-1,0.4-1,1s0.4,1,1,1h8c0.6,0,1-0.4,1-1S116.8,472.5,116.3,472.5z"
		/>
	<path id="XMLID_1554_" fill="#4B5366" d="M148.3,472.5h-8c-0.6,0-1,0.4-1,1s0.4,1,1,1h8c0.6,0,1-0.4,1-1S148.8,472.5,148.3,472.5z"
		/>
	<path id="XMLID_1555_" fill="#4B5366" d="M112.6,448.3c0-0.6-0.4-1-1-1h-8c-0.6,0-1,0.4-1,1s0.4,1,1,1h8
		C112.1,449.3,112.6,448.8,112.6,448.3z"/>
	<path id="XMLID_1556_" fill="#4B5366" d="M144.6,448.3c0-0.6-0.4-1-1-1h-8c-0.6,0-1,0.4-1,1s0.4,1,1,1h8
		C144.1,449.3,144.6,448.8,144.6,448.3z"/>
	<path id="XMLID_1557_" fill="#4B5366" d="M100.3,472.5h-8c-0.6,0-1,0.4-1,1s0.4,1,1,1h8c0.6,0,1-0.4,1-1S100.8,472.5,100.3,472.5z"
		/>
	<path id="XMLID_1558_" fill="#4B5366" d="M132.3,472.5h-8c-0.6,0-1,0.4-1,1s0.4,1,1,1h8c0.6,0,1-0.4,1-1S132.8,472.5,132.3,472.5z"
		/>
	<path id="XMLID_1559_" fill="#4B5366" d="M128.6,448.3c0-0.6-0.4-1-1-1h-8c-0.6,0-1,0.4-1,1s0.4,1,1,1h8
		C128.1,449.3,128.6,448.8,128.6,448.3z"/>
	<path id="XMLID_1560_" fill="#4B5366" d="M68.3,472.5h-8c-0.6,0-1,0.4-1,1s0.4,1,1,1h8c0.6,0,1-0.4,1-1S68.8,472.5,68.3,472.5z"/>
	<path id="XMLID_1561_" fill="#4B5366" d="M52.3,472.5h-8c-0.6,0-1,0.4-1,1s0.4,1,1,1h8c0.6,0,1-0.4,1-1S52.8,472.5,52.3,472.5z"/>
	<path id="XMLID_1562_" fill="#4B5366" d="M80.6,448.3c0-0.6-0.4-1-1-1h-8c-0.6,0-1,0.4-1,1s0.4,1,1,1h8
		C80.1,449.3,80.6,448.8,80.6,448.3z"/>
	<path id="XMLID_1563_" fill="#4B5366" d="M84.3,472.5h-8c-0.6,0-1,0.4-1,1s0.4,1,1,1h8c0.6,0,1-0.4,1-1S84.8,472.5,84.3,472.5z"/>
	<path id="XMLID_1564_" fill="#4B5366" d="M96.6,448.3c0-0.6-0.4-1-1-1h-8c-0.6,0-1,0.4-1,1s0.4,1,1,1h8
		C96.1,449.3,96.6,448.8,96.6,448.3z"/>
	<path id="XMLID_1565_" fill="#4B5366" d="M244.3,472.5h-8c-0.6,0-1,0.4-1,1s0.4,1,1,1h8c0.6,0,1-0.4,1-1S244.8,472.5,244.3,472.5z"
		/>
	<path id="XMLID_1566_" fill="#4B5366" d="M224.6,448.3c0-0.6-0.4-1-1-1h-8c-0.6,0-1,0.4-1,1s0.4,1,1,1h8
		C224.1,449.3,224.6,448.8,224.6,448.3z"/>
	<path id="XMLID_1567_" fill="#4B5366" d="M208.6,448.3c0-0.6-0.4-1-1-1h-8c-0.6,0-1,0.4-1,1s0.4,1,1,1h8
		C208.1,449.3,208.6,448.8,208.6,448.3z"/>
	<path id="XMLID_1568_" fill="#4B5366" d="M212.3,472.5h-8c-0.6,0-1,0.4-1,1s0.4,1,1,1h8c0.6,0,1-0.4,1-1S212.8,472.5,212.3,472.5z"
		/>
	<path id="XMLID_1569_" fill="#4B5366" d="M228.3,472.5h-8c-0.6,0-1,0.4-1,1s0.4,1,1,1h8c0.6,0,1-0.4,1-1S228.8,472.5,228.3,472.5z"
		/>
	<path id="XMLID_1570_" fill="#4B5366" d="M240.6,448.3c0-0.6-0.4-1-1-1h-8c-0.6,0-1,0.4-1,1s0.4,1,1,1h8
		C240.1,449.3,240.6,448.8,240.6,448.3z"/>
	<path id="XMLID_1571_" fill="#4B5366" d="M256.6,448.3c0-0.6-0.4-1-1-1h-8c-0.6,0-1,0.4-1,1s0.4,1,1,1h8
		C256.1,449.3,256.6,448.8,256.6,448.3z"/>
	<path id="XMLID_1572_" fill="#4B5366" d="M164.3,472.5h-8c-0.6,0-1,0.4-1,1s0.4,1,1,1h8c0.6,0,1-0.4,1-1S164.8,472.5,164.3,472.5z"
		/>
	<path id="XMLID_1573_" fill="#4B5366" d="M176.6,448.3c0-0.6-0.4-1-1-1h-8c-0.6,0-1,0.4-1,1s0.4,1,1,1h8
		C176.1,449.3,176.6,448.8,176.6,448.3z"/>
	<path id="XMLID_1574_" fill="#4B5366" d="M160.6,448.3c0-0.6-0.4-1-1-1h-8c-0.6,0-1,0.4-1,1s0.4,1,1,1h8
		C160.1,449.3,160.6,448.8,160.6,448.3z"/>
	<path id="XMLID_1575_" fill="#4B5366" d="M192.6,448.3c0-0.6-0.4-1-1-1h-8c-0.6,0-1,0.4-1,1s0.4,1,1,1h8
		C192.1,449.3,192.6,448.8,192.6,448.3z"/>
	<path id="XMLID_1576_" fill="#4B5366" d="M180.3,472.5h-8c-0.6,0-1,0.4-1,1s0.4,1,1,1h8c0.6,0,1-0.4,1-1S180.8,472.5,180.3,472.5z"
		/>
	<path id="XMLID_1577_" fill="#4B5366" d="M196.3,472.5h-8c-0.6,0-1,0.4-1,1s0.4,1,1,1h8c0.6,0,1-0.4,1-1S196.8,472.5,196.3,472.5z"
		/>
	<path id="XMLID_1580_" fill="#4B5366" d="M64.6,448.3c0-0.6-0.4-1-1-1h-8c-0.3,0-0.6,0.2-0.8,0.4V3c0-1.7-1.3-3-3-3H26.5
		c-1.7,0-3,1.3-3,3v441.8H3c-1.7,0-3,1.3-3,3v63.9c0,1.7,1.3,3,3,3h31.1c1.7,0,3-1.3,3-3V474c0.1-0.2,0.2-0.3,0.2-0.5
		c0-0.3-0.2-0.6-0.4-0.8c-0.5-1-1.5-1.8-2.7-1.8h-4.6v-20.1h22.2c1.4,0,2.5-0.9,2.9-2.2c0.1,0.4,0.5,0.6,0.9,0.6h8
		C64.1,449.3,64.6,448.8,64.6,448.3z M31.1,476.9v31.8H6v-57.9h17.5v23.1c0,1.7,1.3,3,3,3H31.1z M48.8,444.8H29.5V6h19.2V444.8z"/>
	<path id="XMLID_1582_" fill="#4B5366" d="M773.2,448.3c0-0.6-0.4-1-1-1h-8c-0.6,0-1,0.4-1,1s0.4,1,1,1h8
		C772.8,449.3,773.2,448.8,773.2,448.3z"/>
	<path id="XMLID_1583_" fill="#4B5366" d="M777.7,472.5h-8c-0.6,0-1,0.4-1,1s0.4,1,1,1h8c0.6,0,1-0.4,1-1S778.3,472.5,777.7,472.5z"
		/>
	<path id="XMLID_1584_" fill="#4B5366" d="M761.7,472.5h-8c-0.6,0-1,0.4-1,1s0.4,1,1,1h8c0.6,0,1-0.4,1-1S762.3,472.5,761.7,472.5z"
		/>
	<path id="XMLID_1585_" fill="#4B5366" d="M793.7,472.5h-8c-0.6,0-1,0.4-1,1s0.4,1,1,1h8c0.6,0,1-0.4,1-1S794.3,472.5,793.7,472.5z"
		/>
	<path id="XMLID_1586_" fill="#4B5366" d="M789.2,448.3c0-0.6-0.4-1-1-1h-8c-0.6,0-1,0.4-1,1s0.4,1,1,1h8
		C788.8,449.3,789.2,448.8,789.2,448.3z"/>
	<path id="XMLID_1587_" fill="#4B5366" d="M757.2,448.3c0-0.6-0.4-1-1-1h-8c-0.6,0-1,0.4-1,1s0.4,1,1,1h8
		C756.8,449.3,757.2,448.8,757.2,448.3z"/>
	<path id="XMLID_1588_" fill="#4B5366" d="M729.7,472.5h-8c-0.6,0-1,0.4-1,1s0.4,1,1,1h8c0.6,0,1-0.4,1-1S730.3,472.5,729.7,472.5z"
		/>
	<path id="XMLID_1589_" fill="#4B5366" d="M725.2,448.3c0-0.6-0.4-1-1-1h-8c-0.6,0-1,0.4-1,1s0.4,1,1,1h8
		C724.8,449.3,725.2,448.8,725.2,448.3z"/>
	<path id="XMLID_1590_" fill="#4B5366" d="M713.7,472.5h-8c-0.6,0-1,0.4-1,1s0.4,1,1,1h8c0.6,0,1-0.4,1-1S714.3,472.5,713.7,472.5z"
		/>
	<path id="XMLID_1591_" fill="#4B5366" d="M709.2,448.3c0-0.6-0.4-1-1-1h-8c-0.6,0-1,0.4-1,1s0.4,1,1,1h8
		C708.8,449.3,709.2,448.8,709.2,448.3z"/>
	<path id="XMLID_1592_" fill="#4B5366" d="M741.2,448.3c0-0.6-0.4-1-1-1h-8c-0.6,0-1,0.4-1,1s0.4,1,1,1h8
		C740.8,449.3,741.2,448.8,741.2,448.3z"/>
	<path id="XMLID_1593_" fill="#4B5366" d="M805.2,448.3c0-0.6-0.4-1-1-1h-8c-0.6,0-1,0.4-1,1s0.4,1,1,1h8
		C804.8,449.3,805.2,448.8,805.2,448.3z"/>
	<path id="XMLID_1594_" fill="#4B5366" d="M745.7,472.5h-8c-0.6,0-1,0.4-1,1s0.4,1,1,1h8c0.6,0,1-0.4,1-1S746.3,472.5,745.7,472.5z"
		/>
	<path id="XMLID_1595_" fill="#4B5366" d="M697.7,472.5h-8c-0.6,0-1,0.4-1,1s0.4,1,1,1h8c0.6,0,1-0.4,1-1S698.3,472.5,697.7,472.5z"
		/>
	<path id="XMLID_1596_" fill="#4B5366" d="M869.2,448.3c0-0.6-0.4-1-1-1h-8c-0.6,0-1,0.4-1,1s0.4,1,1,1h8
		C868.8,449.3,869.2,448.8,869.2,448.3z"/>
	<path id="XMLID_1597_" fill="#4B5366" d="M485.2,448.3c0-0.6-0.4-1-1-1h-4.6h-8c-0.6,0-1,0.4-1,1s0.4,1,1,1h7v2.4
		c0,0.2,0.1,0.4,0.2,0.6c-0.1,0.2-0.2,0.4-0.2,0.6v6.8v1.2v6.8c0,0.2,0.1,0.4,0.2,0.6c-0.1,0.2-0.2,0.4-0.2,0.6v3.7h-2.3
		c-0.6,0-1,0.4-1,1s0.4,1,1,1h3.3c0.6,0,1-0.4,1-1v-4.7c0-0.2-0.1-0.4-0.2-0.6c0.1-0.2,0.2-0.4,0.2-0.6v-6.8v-1.2v-6.8
		c0-0.2-0.1-0.4-0.2-0.6c0.1-0.2,0.2-0.4,0.2-0.6v-2.4h3.6C484.8,449.3,485.2,448.8,485.2,448.3z"/>
	<path id="XMLID_1598_" fill="#4B5366" d="M873.7,472.5h-8c-0.6,0-1,0.4-1,1s0.4,1,1,1h8c0.6,0,1-0.4,1-1S874.3,472.5,873.7,472.5z"
		/>
	<path id="XMLID_1599_" fill="#4B5366" d="M889.7,472.5h-8c-0.6,0-1,0.4-1,1s0.4,1,1,1h8c0.6,0,1-0.4,1-1S890.3,472.5,889.7,472.5z"
		/>
	<path id="XMLID_1600_" fill="#4B5366" d="M901.2,448.3c0-0.6-0.4-1-1-1h-8c-0.6,0-1,0.4-1,1s0.4,1,1,1h8
		C900.8,449.3,901.2,448.8,901.2,448.3z"/>
	<path id="XMLID_1601_" fill="#4B5366" d="M905.7,472.5h-8c-0.6,0-1,0.4-1,1s0.4,1,1,1h8c0.6,0,1-0.4,1-1S906.3,472.5,905.7,472.5z"
		/>
	<path id="XMLID_1602_" fill="#4B5366" d="M841.7,472.5h-8c-0.6,0-1,0.4-1,1s0.4,1,1,1h8c0.6,0,1-0.4,1-1S842.3,472.5,841.7,472.5z"
		/>
	<path id="XMLID_1603_" fill="#4B5366" d="M825.7,472.5h-8c-0.6,0-1,0.4-1,1s0.4,1,1,1h8c0.6,0,1-0.4,1-1S826.3,472.5,825.7,472.5z"
		/>
	<path id="XMLID_1604_" fill="#4B5366" d="M837.2,448.3c0-0.6-0.4-1-1-1h-8c-0.6,0-1,0.4-1,1s0.4,1,1,1h8
		C836.8,449.3,837.2,448.8,837.2,448.3z"/>
	<path id="XMLID_1605_" fill="#4B5366" d="M821.2,448.3c0-0.6-0.4-1-1-1h-8c-0.6,0-1,0.4-1,1s0.4,1,1,1h8
		C820.8,449.3,821.2,448.8,821.2,448.3z"/>
	<path id="XMLID_1606_" fill="#4B5366" d="M809.7,472.5h-8c-0.6,0-1,0.4-1,1s0.4,1,1,1h8c0.6,0,1-0.4,1-1S810.3,472.5,809.7,472.5z"
		/>
	<path id="XMLID_1607_" fill="#4B5366" d="M857.7,472.5h-8c-0.6,0-1,0.4-1,1s0.4,1,1,1h8c0.6,0,1-0.4,1-1S858.3,472.5,857.7,472.5z"
		/>
	<path id="XMLID_1608_" fill="#4B5366" d="M853.2,448.3c0-0.6-0.4-1-1-1h-8c-0.6,0-1,0.4-1,1s0.4,1,1,1h8
		C852.8,449.3,853.2,448.8,853.2,448.3z"/>
	<path id="XMLID_1609_" fill="#4B5366" d="M885.2,448.3c0-0.6-0.4-1-1-1h-8c-0.6,0-1,0.4-1,1s0.4,1,1,1h8
		C884.8,449.3,885.2,448.8,885.2,448.3z"/>
	<path id="XMLID_1610_" fill="#4B5366" d="M565.2,448.3c0-0.6-0.4-1-1-1h-8c-0.6,0-1,0.4-1,1s0.4,1,1,1h8
		C564.8,449.3,565.2,448.8,565.2,448.3z"/>
	<path id="XMLID_1611_" fill="#4B5366" d="M537.7,472.5h-8c-0.6,0-1,0.4-1,1s0.4,1,1,1h8c0.6,0,1-0.4,1-1S538.3,472.5,537.7,472.5z"
		/>
	<path id="XMLID_1612_" fill="#4B5366" d="M549.2,448.3c0-0.6-0.4-1-1-1h-8c-0.6,0-1,0.4-1,1s0.4,1,1,1h8
		C548.8,449.3,549.2,448.8,549.2,448.3z"/>
	<path id="XMLID_1613_" fill="#4B5366" d="M553.7,472.5h-8c-0.6,0-1,0.4-1,1s0.4,1,1,1h8c0.6,0,1-0.4,1-1S554.3,472.5,553.7,472.5z"
		/>
	<path id="XMLID_1614_" fill="#4B5366" d="M581.2,448.3c0-0.6-0.4-1-1-1h-8c-0.6,0-1,0.4-1,1s0.4,1,1,1h8
		C580.8,449.3,581.2,448.8,581.2,448.3z"/>
	<path id="XMLID_1615_" fill="#4B5366" d="M569.7,472.5h-8c-0.6,0-1,0.4-1,1s0.4,1,1,1h8c0.6,0,1-0.4,1-1S570.3,472.5,569.7,472.5z"
		/>
	<path id="XMLID_1616_" fill="#4B5366" d="M585.7,472.5h-8c-0.6,0-1,0.4-1,1s0.4,1,1,1h8c0.6,0,1-0.4,1-1S586.3,472.5,585.7,472.5z"
		/>
	<path id="XMLID_1617_" fill="#4B5366" d="M501.2,448.3c0-0.6-0.4-1-1-1h-8c-0.6,0-1,0.4-1,1s0.4,1,1,1h8
		C500.8,449.3,501.2,448.8,501.2,448.3z"/>
	<path id="XMLID_1618_" fill="#4B5366" d="M505.7,472.5h-8c-0.6,0-1,0.4-1,1s0.4,1,1,1h8c0.6,0,1-0.4,1-1S506.3,472.5,505.7,472.5z"
		/>
	<path id="XMLID_1619_" fill="#4B5366" d="M533.2,448.3c0-0.6-0.4-1-1-1h-8c-0.6,0-1,0.4-1,1s0.4,1,1,1h8
		C532.8,449.3,533.2,448.8,533.2,448.3z"/>
	<path id="XMLID_1620_" fill="#4B5366" d="M693.2,448.3c0-0.6-0.4-1-1-1h-8c-0.6,0-1,0.4-1,1s0.4,1,1,1h8
		C692.8,449.3,693.2,448.8,693.2,448.3z"/>
	<path id="XMLID_1621_" fill="#4B5366" d="M517.2,448.3c0-0.6-0.4-1-1-1h-8c-0.6,0-1,0.4-1,1s0.4,1,1,1h8
		C516.8,449.3,517.2,448.8,517.2,448.3z"/>
	<path id="XMLID_1622_" fill="#4B5366" d="M521.7,472.5h-8c-0.6,0-1,0.4-1,1s0.4,1,1,1h8c0.6,0,1-0.4,1-1S522.3,472.5,521.7,472.5z"
		/>
	<path id="XMLID_1623_" fill="#4B5366" d="M489.7,472.5h-8c-0.6,0-1,0.4-1,1s0.4,1,1,1h8c0.6,0,1-0.4,1-1S490.3,472.5,489.7,472.5z"
		/>
	<path id="XMLID_1624_" fill="#4B5366" d="M665.7,472.5h-8c-0.6,0-1,0.4-1,1s0.4,1,1,1h8c0.6,0,1-0.4,1-1S666.3,472.5,665.7,472.5z"
		/>
	<path id="XMLID_1625_" fill="#4B5366" d="M661.2,448.3c0-0.6-0.4-1-1-1h-8c-0.6,0-1,0.4-1,1s0.4,1,1,1h8
		C660.8,449.3,661.2,448.8,661.2,448.3z"/>
	<path id="XMLID_1626_" fill="#4B5366" d="M649.7,472.5h-8c-0.6,0-1,0.4-1,1s0.4,1,1,1h8c0.6,0,1-0.4,1-1S650.3,472.5,649.7,472.5z"
		/>
	<path id="XMLID_1627_" fill="#4B5366" d="M681.7,472.5h-8c-0.6,0-1,0.4-1,1s0.4,1,1,1h8c0.6,0,1-0.4,1-1S682.3,472.5,681.7,472.5z"
		/>
	<path id="XMLID_1628_" fill="#4B5366" d="M645.2,448.3c0-0.6-0.4-1-1-1h-8c-0.6,0-1,0.4-1,1s0.4,1,1,1h8
		C644.8,449.3,645.2,448.8,645.2,448.3z"/>
	<path id="XMLID_1629_" fill="#4B5366" d="M677.2,448.3c0-0.6-0.4-1-1-1h-8c-0.6,0-1,0.4-1,1s0.4,1,1,1h8
		C676.8,449.3,677.2,448.8,677.2,448.3z"/>
	<path id="XMLID_1630_" fill="#4B5366" d="M613.2,448.3c0-0.6-0.4-1-1-1h-8c-0.6,0-1,0.4-1,1s0.4,1,1,1h8
		C612.8,449.3,613.2,448.8,613.2,448.3z"/>
	<path id="XMLID_1631_" fill="#4B5366" d="M597.2,448.3c0-0.6-0.4-1-1-1h-8c-0.6,0-1,0.4-1,1s0.4,1,1,1h8
		C596.8,449.3,597.2,448.8,597.2,448.3z"/>
	<path id="XMLID_1632_" fill="#4B5366" d="M601.7,472.5h-8c-0.6,0-1,0.4-1,1s0.4,1,1,1h8c0.6,0,1-0.4,1-1S602.3,472.5,601.7,472.5z"
		/>
	<path id="XMLID_1633_" fill="#4B5366" d="M629.2,448.3c0-0.6-0.4-1-1-1h-8c-0.6,0-1,0.4-1,1s0.4,1,1,1h8
		C628.8,449.3,629.2,448.8,629.2,448.3z"/>
	<path id="XMLID_1634_" fill="#4B5366" d="M633.7,472.5h-8c-0.6,0-1,0.4-1,1s0.4,1,1,1h8c0.6,0,1-0.4,1-1S634.3,472.5,633.7,472.5z"
		/>
	<path id="XMLID_1635_" fill="#4B5366" d="M617.7,472.5h-8c-0.6,0-1,0.4-1,1s0.4,1,1,1h8c0.6,0,1-0.4,1-1S618.3,472.5,617.7,472.5z"
		/>
</g>
</svg>
