<?xml version="1.0" encoding="utf-8"?>
<!-- Generator: Adobe Illustrator 19.0.0, SVG Export Plug-In . SVG Version: 6.00 Build 0)  -->
<svg version="1.1" baseProfile="basic" id="图层_1"
	 xmlns="http://www.w3.org/2000/svg" xmlns:xlink="http://www.w3.org/1999/xlink" x="0px" y="0px" viewBox="0 0 245.7 235.1"
	 xml:space="preserve">
<g id="XMLID_25915_">
	<g id="XMLID_25919_">
		<g id="XMLID_25920_">
			<path id="XMLID_1158_" fill="#4B5366" d="M10.8,170.2l1.5,3.4l4.7-2c1.4-0.6,2.7-2.3,1.9-4.1l-0.9-2.1c0.1,0.1,0-0.3,0.4-0.5
				l22.8-9.6c0.6-0.3,1.9,0.5,2.3,1.3l10.5,24.9c0.2,0.5,0,0.8,0.1,0.8l-26.5,11.2c-1.8,0.8-2.1,4-1.1,6.4l13.2,31.3
				c1,2.4,3.6,4.3,5.4,3.6l71.5-30.1c1.2-0.5,1.8-2,1.8-3.6c0-0.9-0.7-3-0.8-2.9l1.4-0.6l-11.1-26.2c-0.9-2.2-3.4-4.2-5-3.5l-11,4.6
				l-2.6-2.5c-1.1-1.1-2.5-1.4-3.7-1L64.6,178l-15.2-36c-1.1-2.7-4.2-4.5-6.2-3.6l-30.7,12.9c-0.4,0.2-0.3,0.7-0.2,0.9l-0.8-2
				c-0.8-1.9-3.4-3.1-4.8-2.5l-4.6,1.9l1.6,3.8l4.6-1.9l3,6.1c0,0.1,0.4,0.1,0.4,0.3l1.7,4.1c0.1,0.2-0.2,0.3-0.1,0.6l2.1,5.8
				L10.8,170.2L10.8,170.2z M115.2,200.4c0,0.1,0.1,0.8-0.2,1l-71.5,30.1c-0.3,0.1-1.1-0.8-1.3-1.2l-4.4-10.5l68-28.6l9.2,8.7
				C115.3,200.1,115.2,200.2,115.2,200.4L115.2,200.4z M104.3,171.4c0.2-0.1,0.8,0.9,1,1.2l9.5,22.5l-20-19.6L104.3,171.4
				L104.3,171.4z M88,173.6l14.8,14.7l-66.5,28L29,198.9c-0.2-0.5-0.4-1.7,0-1.9l30-12.6l4.4-1.9l23.6-9.9
				C87.2,172.5,87.8,173.4,88,173.6L88,173.6z M14,154.7l30.7-12.9c0.6-0.3,1.8,0.5,2.2,1.3L62,179l-4.5,1.9c-0.6,0.3-0.7,0.4-1-0.4
				L46,155.6c-1.1-2.7-4.3-4.5-6.3-3.7l-22.8,9.6c-0.6,0.3-0.5,0.1-0.9-0.7l-1.7-4.1C14,155.9,13.4,154.9,14,154.7L14,154.7z
				 M14,154.7"/>
		</g>
	</g>
	<g id="XMLID_25918_">
		<path id="XMLID_1124_" fill="#9A9A9A" d="M52.8,128l-3.1-7.4l3.7-1.6l3.1,7.4L52.8,128z M46.6,113.3l-3.1-7.4l3.7-1.6l3.1,7.4
			L46.6,113.3z M40.4,98.5l-3.1-7.4l3.7-1.6l3.1,7.4L40.4,98.5z M34.2,83.8l-3.1-7.4l3.7-1.6l3.1,7.4L34.2,83.8z M28,69l-3.1-7.4
			l3.7-1.6l3.1,7.4L28,69z M21.8,54.3l-3.1-7.4l3.7-1.6l3.1,7.4L21.8,54.3z M15.5,39.5l-3.1-7.4l3.7-1.6l3.1,7.4L15.5,39.5z
			 M9.3,24.8l-3.1-7.4l3.7-1.6l3.1,7.4L9.3,24.8z M3.1,10.1L0,2.7l3.7-1.6l3.1,7.4L3.1,10.1z"/>
	</g>
	<g id="XMLID_25917_">
		<path id="XMLID_1113_" fill="#9A9A9A" d="M120.4,155.5l-1.6-3.7l7.4-3.1l1.6,3.7L120.4,155.5z M135.1,149.3l-1.6-3.7l7.4-3.1
			l1.6,3.7L135.1,149.3z M149.8,143.1l-1.6-3.7l7.4-3.1l1.6,3.7L149.8,143.1z M164.6,136.8l-1.6-3.7l7.4-3.1l1.6,3.7L164.6,136.8z
			 M179.3,130.6l-1.6-3.7l7.4-3.1l1.6,3.7L179.3,130.6z M194.1,124.4l-1.6-3.7l7.4-3.1l1.6,3.7L194.1,124.4z M208.8,118.2l-1.6-3.7
			l7.4-3.1l1.6,3.7L208.8,118.2z M223.6,112l-1.6-3.7l7.4-3.1l1.6,3.7L223.6,112z M238.3,105.8l-1.6-3.7l7.4-3.1l1.6,3.7
			L238.3,105.8z"/>
	</g>
</g>
</svg>
