<?xml version="1.0" encoding="utf-8"?>
<!-- Generator: Adobe Illustrator 19.0.0, SVG Export Plug-In . SVG Version: 6.00 Build 0)  -->
<svg version="1.1" baseProfile="basic" id="图层_1"
	 xmlns="http://www.w3.org/2000/svg" xmlns:xlink="http://www.w3.org/1999/xlink" x="0px" y="0px" viewBox="0 0 143.3 61.3"
	 xml:space="preserve">
<g id="XMLID_1_">
	<path id="XMLID_4_" fill="#9A9A9A" d="M143.3,45.6L143.3,45.6c0-0.6-0.2-1.3-0.5-1.9L124.7,6.3C123,2.8,118,0,113.4,0H29.9
		c-4.7,0-9.7,2.8-11.4,6.3L0.5,43.7C0.2,44.3,0,45,0,45.6h0v10.2h0c0,0.7,0.2,1.3,0.6,2c1.4,2.2,4.9,3.5,9.4,3.5h123.1
		c4.5,0,8.1-1.3,9.4-3.5c0.4-0.6,0.6-1.3,0.6-2h0V45.6z"/>
	<path id="XMLID_6_" fill="#F9F9F9" d="M29.9,3c-3.5,0-7.5,2.1-8.7,4.6L3.2,45c-0.3,0.6-0.2,0.9,0,1.2c0.7,1.1,3.1,2.1,6.9,2.1
		h123.1c3.8,0,6.2-1.1,6.9-2.1c0.2-0.3,0.3-0.6,0-1.2L122,7.6c-1.2-2.5-5.2-4.6-8.7-4.6H29.9z"/>
	<path id="XMLID_3_" fill="#9A9A9A" d="M23.9,18c-0.3,0-0.7-0.2-0.8-0.5c-0.3-0.5-0.2-1.1,0.3-1.4l15-9.5c0.5-0.3,1.1-0.2,1.4,0.3
		C40,7.4,39.9,8,39.4,8.3l-15,9.5C24.3,17.9,24.1,18,23.9,18z"/>
	<path id="XMLID_2_" fill="#9A9A9A" d="M21,29.6c-0.3,0-0.7-0.2-0.8-0.5c-0.3-0.5-0.2-1.1,0.3-1.4l31-19.6c0.5-0.3,1.1-0.2,1.4,0.3
		c0.3,0.5,0.2,1.1-0.3,1.4l-31,19.6C21.4,29.5,21.2,29.6,21,29.6z"/>
</g>
</svg>
