<?xml version="1.0" encoding="utf-8"?>
<!-- Generator: Adobe Illustrator 19.0.0, SVG Export Plug-In . SVG Version: 6.00 Build 0)  -->
<svg version="1.1" baseProfile="basic" id="图层_1"
	 xmlns="http://www.w3.org/2000/svg" xmlns:xlink="http://www.w3.org/1999/xlink" x="0px" y="0px" viewBox="0 0 228 256.2"
	 xml:space="preserve">
<g id="XMLID_25998_">
	<g id="XMLID_26001_">
		<g id="XMLID_26002_">
			<path id="XMLID_1329_" fill="#4B5366" d="M167.7,225.3l3.2-1.9l-2.5-4.4c-0.7-1.3-2.6-2.4-4.3-1.4l-2,1.1c0.1-0.1-0.3,0-0.5-0.3
				L149.3,197c-0.3-0.6,0.3-2,1-2.4l23.5-13.4c0.5-0.3,0.8-0.1,0.7-0.2l14.3,24.9c1,1.7,4.3,1.6,6.5,0.4l29.5-16.9
				c2.2-1.3,3.9-4.1,2.9-5.7l-38.5-67.3c-0.6-1.1-2.2-1.5-3.8-1.3c-0.9,0.1-2.9,1.1-2.8,1.1l-0.8-1.3l-24.7,14.1
				c-2.1,1.2-3.8,3.8-2.9,5.4l5.9,10.4l-2.1,2.9c-0.9,1.3-1.1,2.7-0.5,3.8l11.2,19.7l-34,19.4c-2.5,1.4-3.9,4.7-2.8,6.6l16.5,28.9
				c0.2,0.4,0.7,0.2,0.9,0.1l-1.9,1.1c-1.8,1-2.6,3.7-1.9,5.1l2.5,4.3l3.6-2.1l-2.5-4.3l5.7-3.7c0.1-0.1,0.1-0.4,0.2-0.5l3.9-2.2
				c0.2-0.1,0.3,0.1,0.6,0l5.5-2.8L167.7,225.3L167.7,225.3z M185,118c0.1,0,0.8-0.2,1,0.1l38.5,67.3c0.2,0.3-0.6,1.2-1.1,1.4
				l-9.9,5.7l-36.6-64l7.5-10.2C184.7,118,184.9,118,185,118L185,118z M157.6,132.4c-0.1-0.2,0.8-0.9,1-1.1l21.2-12.1l-17.1,22.2
				L157.6,132.4L157.6,132.4z M161.7,148.3l12.8-16.5l35.8,62.6l-16.4,9.4c-0.4,0.2-1.7,0.6-1.8,0.2l-16.1-28.2l-2.4-4.1l-12.7-22.2
				C160.7,149.2,161.5,148.5,161.7,148.3L161.7,148.3z M151.8,224l-16.5-28.9c-0.3-0.6,0.2-1.9,1-2.3l34-19.4l2.4,4.2
				c0.3,0.6,0.5,0.6-0.3,1l-23.5,13.4c-2.5,1.4-4,4.8-2.9,6.7l12.3,21.5c0.3,0.6,0.1,0.5-0.6,0.9l-3.9,2.2
				C153.1,223.9,152.2,224.6,151.8,224L151.8,224z M151.8,224"/>
		</g>
	</g>
	<g id="XMLID_26000_">
		<path id="XMLID_1295_" fill="#9A9A9A" d="M2.7,256.2l-2-3.5l6.9-4l2,3.5L2.7,256.2z M16.5,248.3l-2-3.5l6.9-4l2,3.5L16.5,248.3z
			 M30.4,240.3l-2-3.5l6.9-4l2,3.5L30.4,240.3z M44.3,232.4l-2-3.5l6.9-4l2,3.5L44.3,232.4z M58.2,224.4l-2-3.5l6.9-4l2,3.5
			L58.2,224.4z M72.1,216.5l-2-3.5l6.9-4l2,3.5L72.1,216.5z M86,208.6l-2-3.5l6.9-4l2,3.5L86,208.6z M99.9,200.6l-2-3.5l6.9-4l2,3.5
			L99.9,200.6z M113.8,192.7l-2-3.5l6.9-4l2,3.5L113.8,192.7z"/>
	</g>
	<g id="XMLID_25999_">
		<path id="XMLID_1284_" fill="#9A9A9A" d="M136.4,120.3l-4-6.9l3.5-2l4,6.9L136.4,120.3z M128.4,106.4l-4-6.9l3.5-2l4,6.9
			L128.4,106.4z M120.5,92.6l-4-6.9l3.5-2l4,6.9L120.5,92.6z M112.6,78.7l-4-6.9l3.5-2l4,6.9L112.6,78.7z M104.6,64.8l-4-6.9l3.5-2
			l4,6.9L104.6,64.8z M96.7,50.9l-4-6.9l3.5-2l4,6.9L96.7,50.9z M88.7,37l-4-6.9l3.5-2l4,6.9L88.7,37z M80.8,23.1l-4-6.9l3.5-2
			l4,6.9L80.8,23.1z M72.8,9.2l-4-6.9l3.5-2l4,6.9L72.8,9.2z"/>
	</g>
</g>
</svg>
