<?xml version="1.0" encoding="utf-8"?>
<!-- Generator: Adobe Illustrator 19.0.0, SVG Export Plug-In . SVG Version: 6.00 Build 0)  -->
<svg version="1.1" baseProfile="basic" id="图层_1"
	 xmlns="http://www.w3.org/2000/svg" xmlns:xlink="http://www.w3.org/1999/xlink" x="0px" y="0px" viewBox="0 0 51.5 59.5"
	 xml:space="preserve">
<g id="XMLID_1_">
	<path id="XMLID_4_" fill="#9A9A9A" d="M147.6-1618.9L147.6-1618.9c0-0.6-0.2-1.3-0.5-1.9l-18.1-37.4c-1.7-3.5-6.7-6.3-11.4-6.3
		H34.2c-4.7,0-9.7,2.8-11.4,6.3l-18.1,37.4c-0.3,0.6-0.4,1.3-0.5,1.9h0v10.2h0c0,0.7,0.2,1.3,0.6,2c1.4,2.2,4.9,3.5,9.4,3.5h123.1
		c4.5,0,8.1-1.3,9.4-3.5c0.4-0.6,0.6-1.3,0.6-2h0V-1618.9z"/>
	<path id="XMLID_6_" fill="#F9F9F9" d="M34.2-1661.5c-3.5,0-7.5,2.1-8.7,4.6l-18.1,37.4c-0.3,0.6-0.2,0.9,0,1.2
		c0.7,1.1,3.1,2.1,6.9,2.1h123.1c3.8,0,6.2-1.1,6.9-2.1c0.2-0.3,0.3-0.6,0-1.2l-18.1-37.4c-1.2-2.5-5.2-4.6-8.7-4.6H34.2z"/>
	<path id="XMLID_3_" fill="#9A9A9A" d="M28.2-1646.5c-0.3,0-0.7-0.2-0.8-0.5c-0.3-0.5-0.2-1.1,0.3-1.4l15-9.5
		c0.5-0.3,1.1-0.2,1.4,0.3c0.3,0.5,0.2,1.1-0.3,1.4l-15,9.5C28.6-1646.5,28.4-1646.5,28.2-1646.5z"/>
	<path id="XMLID_2_" fill="#9A9A9A" d="M25.3-1634.9c-0.3,0-0.7-0.2-0.8-0.5c-0.3-0.5-0.2-1.1,0.3-1.4l31-19.6
		c0.5-0.3,1.1-0.2,1.4,0.3c0.3,0.5,0.2,1.1-0.3,1.4l-31,19.6C25.7-1634.9,25.5-1634.9,25.3-1634.9z"/>
</g>
<g id="XMLID_89_">
	<path id="XMLID_93_" fill="#65D34A" d="M409.7-1618.9L409.7-1618.9c0-0.6-0.2-1.3-0.5-1.9l-18.1-37.4c-1.7-3.5-6.7-6.3-11.4-6.3
		h-83.5c-4.7,0-9.7,2.8-11.4,6.3l-18.1,37.4c-0.3,0.6-0.4,1.3-0.5,1.9h0v10.2h0c0,0.7,0.2,1.3,0.6,2c1.4,2.2,4.9,3.5,9.4,3.5h123.1
		c4.5,0,8.1-1.3,9.4-3.5c0.4-0.6,0.6-1.3,0.6-2h0V-1618.9z"/>
	<path id="XMLID_92_" fill="#F9F9F9" d="M296.3-1661.5c-3.5,0-7.5,2.1-8.7,4.6l-18.1,37.4c-0.3,0.6-0.2,0.9,0,1.2
		c0.7,1.1,3.1,2.1,6.9,2.1h123.1c3.8,0,6.2-1.1,6.9-2.1c0.2-0.3,0.3-0.6,0-1.2l-18.1-37.4c-1.2-2.5-5.2-4.6-8.7-4.6H296.3z"/>
	<path id="XMLID_91_" fill="#65D34A" d="M290.3-1646.5c-0.3,0-0.7-0.2-0.8-0.5c-0.3-0.5-0.2-1.1,0.3-1.4l15-9.5
		c0.5-0.3,1.1-0.2,1.4,0.3c0.3,0.5,0.2,1.1-0.3,1.4l-15,9.5C290.7-1646.5,290.5-1646.5,290.3-1646.5z"/>
	<path id="XMLID_90_" fill="#65D34A" d="M287.5-1634.9c-0.3,0-0.7-0.2-0.8-0.5c-0.3-0.5-0.2-1.1,0.3-1.4l31-19.6
		c0.5-0.3,1.1-0.2,1.4,0.3c0.3,0.5,0.2,1.1-0.3,1.4l-31,19.6C287.8-1634.9,287.6-1634.9,287.5-1634.9z"/>
</g>
<g id="XMLID_120_">
	<path id="XMLID_124_" fill="#FF4C2E" d="M669.2-1618.9L669.2-1618.9c0-0.6-0.2-1.3-0.5-1.9l-18.1-37.4c-1.7-3.5-6.7-6.3-11.4-6.3
		h-83.5c-4.7,0-9.7,2.8-11.4,6.3l-18.1,37.4c-0.3,0.6-0.4,1.3-0.5,1.9h0v10.2h0c0,0.7,0.2,1.3,0.6,2c1.4,2.2,4.9,3.5,9.4,3.5h123.1
		c4.5,0,8.1-1.3,9.4-3.5c0.4-0.6,0.6-1.3,0.6-2h0V-1618.9z"/>
	<path id="XMLID_123_" fill="#F9F9F9" d="M555.8-1661.5c-3.5,0-7.5,2.1-8.7,4.6l-18.1,37.4c-0.3,0.6-0.2,0.9,0,1.2
		c0.7,1.1,3.1,2.1,6.9,2.1h123.1c3.8,0,6.2-1.1,6.9-2.1c0.2-0.3,0.3-0.6,0-1.2l-18.1-37.4c-1.2-2.5-5.2-4.6-8.7-4.6H555.8z"/>
	<path id="XMLID_122_" fill="#FF4C2E" d="M549.8-1646.5c-0.3,0-0.7-0.2-0.8-0.5c-0.3-0.5-0.2-1.1,0.3-1.4l15-9.5
		c0.5-0.3,1.1-0.2,1.4,0.3c0.3,0.5,0.2,1.1-0.3,1.4l-15,9.5C550.2-1646.5,550-1646.5,549.8-1646.5z"/>
	<path id="XMLID_121_" fill="#FF4C2E" d="M547-1634.9c-0.3,0-0.7-0.2-0.8-0.5c-0.3-0.5-0.2-1.1,0.3-1.4l31-19.6
		c0.5-0.3,1.1-0.2,1.4,0.3c0.3,0.5,0.2,1.1-0.3,1.4l-31,19.6C547.3-1634.9,547.2-1634.9,547-1634.9z"/>
</g>
<g id="XMLID_176_">
	<path id="XMLID_177_" fill="#9A9A9A" d="M212.3-1455.8c0-0.1,0-0.2,0-0.3c0-25.3-47.9-45.1-109.1-45.1S-6-1481.4-6-1456.1
		c0,0.6,0,1.1,0.1,1.7v22.5c-0.1,1.2-0.1,2.6-0.1,4.2l0,0.6c0,25.3,47.9,45.1,109.1,45.1c61.1,0,108.9-19.7,109.1-44.9h0
		L212.3-1455.8L212.3-1455.8z"/>
	<path id="XMLID_196_" fill="#F9F9F9" d="M103.1-1495.2c-55.9,0-103.1,17.9-103.1,39.1c0,21.2,47.2,39.1,103.1,39.1
		c55.9,0,103.1-17.9,103.1-39.1C206.3-1477.3,159-1495.2,103.1-1495.2z"/>
	<path id="XMLID_191_" fill="#9A9A9A" d="M103.1-1428.5c-22.3,0-43.3-2.6-59.1-7.4c-17-5.2-25.9-12.1-25.9-20.1s9-15,25.9-20.1
		c15.8-4.8,36.8-7.4,59.1-7.4s43.3,2.6,59.1,7.4c17,5.2,25.9,12.1,25.9,20.1s-9,15-25.9,20.1
		C146.4-1431.2,125.4-1428.5,103.1-1428.5z M103.1-1478.7c-47.1,0-80,11.9-80,22.6s32.9,22.6,80,22.6c47.1,0,80-11.9,80-22.6
		S150.3-1478.7,103.1-1478.7z"/>
</g>
<g id="XMLID_612_">
	<path id="XMLID_617_" fill="#65D34A" d="M484.7-1455.8c0-0.1,0-0.2,0-0.3c0-25.3-47.9-45.1-109.1-45.1s-109.1,19.8-109.1,45.1
		c0,0.6,0,1.1,0.1,1.7v22.5c-0.1,1.2-0.1,2.6-0.1,4.2l0,0.6c0,25.3,47.9,45.1,109.1,45.1c61.1,0,108.9-19.7,109.1-44.9h0
		L484.7-1455.8L484.7-1455.8z"/>
	<path id="XMLID_616_" fill="#F9F9F9" d="M375.6-1495.2c-55.9,0-103.1,17.9-103.1,39.1c0,21.2,47.2,39.1,103.1,39.1
		c55.9,0,103.1-17.9,103.1-39.1C478.7-1477.3,431.5-1495.2,375.6-1495.2z"/>
	<path id="XMLID_613_" fill="#65D34A" d="M375.6-1428.5c-22.3,0-43.3-2.6-59.1-7.4c-17-5.2-25.9-12.1-25.9-20.1s9-15,25.9-20.1
		c15.8-4.8,36.8-7.4,59.1-7.4s43.3,2.6,59.1,7.4c17,5.2,25.9,12.1,25.9,20.1s-9,15-25.9,20.1
		C418.8-1431.2,397.9-1428.5,375.6-1428.5z M375.6-1478.7c-47.1,0-80,11.9-80,22.6s32.9,22.6,80,22.6c47.1,0,80-11.9,80-22.6
		S422.7-1478.7,375.6-1478.7z"/>
</g>
<g id="XMLID_644_">
	<path id="XMLID_649_" fill="#FF4C2E" d="M744.2-1455.8c0-0.1,0-0.2,0-0.3c0-25.3-47.9-45.1-109.1-45.1s-109.1,19.8-109.1,45.1
		c0,0.6,0,1.1,0.1,1.7v22.5c-0.1,1.2-0.1,2.6-0.1,4.2l0,0.6c0,25.3,47.9,45.1,109.1,45.1c61.1,0,108.9-19.7,109.1-44.9h0
		L744.2-1455.8L744.2-1455.8z"/>
	<path id="XMLID_648_" fill="#F9F9F9" d="M635.1-1495.2c-55.9,0-103.1,17.9-103.1,39.1c0,21.2,47.2,39.1,103.1,39.1
		c55.9,0,103.1-17.9,103.1-39.1C738.2-1477.3,691-1495.2,635.1-1495.2z"/>
	<path id="XMLID_645_" fill="#FF4C2E" d="M635.1-1428.5c-22.3,0-43.3-2.6-59.1-7.4c-17-5.2-25.9-12.1-25.9-20.1s9-15,25.9-20.1
		c15.8-4.8,36.8-7.4,59.1-7.4s43.3,2.6,59.1,7.4c17,5.2,25.9,12.1,25.9,20.1s-9,15-25.9,20.1
		C678.3-1431.2,657.4-1428.5,635.1-1428.5z M635.1-1478.7c-47.1,0-80,11.9-80,22.6s32.9,22.6,80,22.6c47.1,0,80-11.9,80-22.6
		S682.2-1478.7,635.1-1478.7z"/>
</g>
<g id="XMLID_764_">
	<path id="XMLID_33965_" fill="#8188A5" d="M-0.8-1254.4l70,0c0.9,0,1.7-0.2,2.4-0.6c0.1,0,0.3-0.1,0.4-0.2c0,0,0.1-0.1,0.1-0.1
		c0,0,0.1-0.1,0.2-0.1l0.1-0.1c0.3-0.2,0.5-0.5,0.7-0.7l13.7-13.7c0.7-0.7,0.7-1.8,0-2.4l-1.2-1.2l-1.8-1.8l-10.7-10.7
		c-0.2-0.3-0.5-0.5-0.7-0.7l-0.1-0.1c0,0-0.1-0.1-0.2-0.1c0,0-0.1-0.1-0.1-0.1c-0.1-0.1-0.2-0.2-0.4-0.2c-0.7-0.4-1.5-0.6-2.4-0.6
		l-70,0c-2.9,0-5.2,2.3-5.2,5.2l0,23.4C-6-1256.8-3.7-1254.4-0.8-1254.4L-0.8-1254.4z"/>
	<path id="XMLID_33964_" fill="#F9F9F9" d="M-3.1-1260.9l0.5-21c0-1.9,1.5-3.4,3.4-3.4l68.8,0.4c0.1,0.1,0.2,0.2,0.3,0.3l2.5,2.5
		l1.9,1.9l0,0l3.8,3.8l5.1,5.1l-7.8,7.8l-1.1,1.1l0,0l-1,1l-3.4,3.4c-0.1,0.1-0.3,0.3-0.4,0.4l-69.1,0
		C-1.6-1257.5-3.1-1259-3.1-1260.9L-3.1-1260.9z"/>
	<path id="XMLID_33968_" fill="#8188A5" d="M74.6-1268.8c0.7,0,1.4-0.2,2-0.7c1-1,1-2.6,0-3.6c-0.6-0.6-1.3-0.8-2.1-0.7l-0.2,0
		c-0.5,0.1-1,0.3-1.4,0.7c-1,1-1,2.6,0,3.6c0.4,0.4,0.9,0.6,1.4,0.7L74.6-1268.8L74.6-1268.8z"/>
</g>
<g id="XMLID_911_">
	<path id="XMLID_914_" fill="#8188A5" d="M228.9-1288.1l-70,0c-0.9,0-1.7,0.2-2.4,0.6c-0.1,0-0.3,0.1-0.4,0.2c0,0-0.1,0.1-0.1,0.1
		c0,0-0.1,0.1-0.2,0.1l-0.1,0.1c-0.3,0.2-0.5,0.5-0.7,0.7l-13.7,13.7c-0.7,0.7-0.7,1.8,0,2.4l1.2,1.2l1.8,1.8l10.7,10.7
		c0.2,0.3,0.5,0.5,0.7,0.7l0.1,0.1c0,0,0.1,0.1,0.2,0.1c0,0,0.1,0.1,0.1,0.1c0.1,0.1,0.2,0.2,0.4,0.2c0.7,0.4,1.5,0.6,2.4,0.6l70,0
		c2.9,0,5.2-2.3,5.2-5.2v-23.4C234-1285.8,231.7-1288.1,228.9-1288.1L228.9-1288.1z"/>
	<path id="XMLID_913_" fill="#F9F9F9" d="M231.2-1281.6l-0.5,21c0,1.9-1.5,3.4-3.4,3.4l-68.8-0.4c-0.1-0.1-0.2-0.2-0.3-0.3l-2.5-2.5
		l-1.9-1.9l0,0l-3.8-3.8l-5.1-5.1l7.8-7.8l1.1-1.1l0,0l1-1l3.4-3.4c0.1-0.1,0.3-0.3,0.4-0.4l69.1,0
		C229.6-1285.1,231.2-1283.5,231.2-1281.6L231.2-1281.6z"/>
	<path id="XMLID_912_" fill="#8188A5" d="M153.5-1273.8c-0.7,0-1.4,0.2-2,0.7c-1,1-1,2.6,0,3.6c0.6,0.6,1.3,0.8,2.1,0.7l0.2,0
		c0.5-0.1,1-0.3,1.4-0.7c1-1,1-2.6,0-3.6c-0.4-0.4-0.9-0.6-1.4-0.7L153.5-1273.8L153.5-1273.8z"/>
</g>
<path id="XMLID_33967_" fill="#8188A5" d="M124.8-1238.9"/>
<path id="XMLID_33963_" fill="#8188A5" d="M47-1231"/>
<g id="XMLID_12187_">
	<g id="XMLID_32212_">
		<g id="XMLID_32210_">
			<path id="XMLID_1040_" fill="#4B5366" d="M70.2-1127.3l3.6,3.6l-4.1,4.5c-0.2,0.2,0,0.3-0.2,0.5l-3.2,3.2c-0.1,0.1-0.4,0-0.5,0.1
				l-5,4.5l-3.5-3.5l-2.9,2.9l3.5,3.5c1.1,1.1,3.9,1,5.4-0.5l1.5-1.5c-0.1,0.1-0.4,0.6-0.1,0.9l23.5,23.5c1.6,1.6,5.1,1.1,7.1-1
				l27.7-27.7l16,16c0.9,0.9,2.3,1.1,3.8,0.5l3.3-1.3l8.5,8.5c1.3,1.3,4.3,0.3,6-1.4l20.1-20.1l-1.1-1.1c0,0,1.5-1.6,1.8-2.4
				c0.6-1.5,0.6-3.1-0.3-4l-54.8-54.8c-1.4-1.4-4.5-0.5-6.3,1.3L95.9-1149c-1.8,1.8-2.7,5-1.4,6.4l20.3,20.3c-0.1-0.1,0,0.3-0.4,0.7
				l-19.1,19.1c-0.6,0.6-2.1,0.8-2.6,0.4l-17.5-17.5c-0.3-0.3-0.1-0.7-0.2-0.6l1.6-1.6c1.4-1.4,0.8-3.5-0.3-4.5l-3.6-3.6
				L70.2-1127.3L70.2-1127.3z M178.3-1115.9c-0.1,0.1,0,0.3-0.5,0.5l-11.8,4.6l-52.2-52.2l8.1-8.1c0.4-0.4,1.4-0.9,1.7-0.7
				l54.8,54.8C178.7-1116.6,178.3-1116,178.3-1115.9L178.3-1115.9z M157.2-1093.2l-7.3-7.3l25.9-10.7l-17.3,17.3
				C158.3-1093.7,157.4-1093,157.2-1093.2L157.2-1093.2z M143-1101.3c-0.3,0.1-1.2,0.7-1.3,0.5l-18.1-18.1l-3.4-3.4l-23-23
				c-0.3-0.3,0.4-1.4,0.7-1.7l13.3-13.3l51,51L143-1101.3L143-1101.3z M67.3-1111.7c-0.5-0.5,0.4-1.2,1-1.8l3.2-3.2
				c0.6-0.6,0.6-0.8,1.1-0.3l17.5,17.5c1.6,1.6,5.2,1.1,7.2-1l19.1-19.1c0.6-0.6,0.6-0.4,1.1,0l3.5,3.5l-27.7,27.7
				c-0.6,0.6-2,0.8-2.5,0.3L67.3-1111.7L67.3-1111.7z M67.3-1111.7"/>
		</g>
	</g>
	<g id="XMLID_966_">
		<path id="XMLID_1006_" fill="#9A9A9A" d="M-0.2-973.4l-2.8-2.8l5.7-5.7l2.8,2.8L-0.2-973.4z M11.2-984.7l-2.8-2.8l5.7-5.7l2.8,2.8
			L11.2-984.7z M22.5-996l-2.8-2.8l5.7-5.7l2.8,2.8L22.5-996z M33.8-1007.4l-2.8-2.8l5.7-5.7l2.8,2.8L33.8-1007.4z M45.1-1018.7
			l-2.8-2.8l5.7-5.7l2.8,2.8L45.1-1018.7z M56.4-1030l-2.8-2.8l5.7-5.7l2.8,2.8L56.4-1030z M67.7-1041.3l-2.8-2.8l5.7-5.7l2.8,2.8
			L67.7-1041.3z M79-1052.6l-2.8-2.8l5.7-5.7l2.8,2.8L79-1052.6z M90.4-1063.9l-2.8-2.8l5.7-5.7l2.8,2.8L90.4-1063.9z"/>
	</g>
	<g id="XMLID_12189_">
		<path id="XMLID_995_" fill="#9A9A9A" d="M259.4-973.4l-5.7-5.7l2.8-2.8l5.7,5.7L259.4-973.4z M248.1-984.7l-5.7-5.7l2.8-2.8
			l5.7,5.7L248.1-984.7z M236.8-996l-5.7-5.7l2.8-2.8l5.7,5.7L236.8-996z M225.5-1007.4l-5.7-5.7l2.8-2.8l5.7,5.7L225.5-1007.4z
			 M214.2-1018.7l-5.7-5.7l2.8-2.8l5.7,5.7L214.2-1018.7z M202.9-1030l-5.7-5.7l2.8-2.8l5.7,5.7L202.9-1030z M191.5-1041.3l-5.7-5.7
			l2.8-2.8l5.7,5.7L191.5-1041.3z M180.2-1052.6l-5.7-5.7l2.8-2.8l5.7,5.7L180.2-1052.6z M168.9-1063.9l-5.7-5.7l2.8-2.8l5.7,5.7
			L168.9-1063.9z"/>
	</g>
</g>
<g id="XMLID_1042_">
	<g id="XMLID_1065_">
		<g id="XMLID_1066_">
			<path id="XMLID_1067_" fill="#4B5366" d="M387.8-1021.1l2.6,2.6l3.6-3.6c1.1-1.1,1.7-3.1,0.3-4.5l-1.6-1.6
				c0.1,0.1-0.1-0.3,0.2-0.6l17.5-17.5c0.5-0.5,2-0.2,2.6,0.4l19.1,19.1c0.4,0.4,0.3,0.8,0.4,0.7l-20.3,20.3
				c-1.4,1.4-0.5,4.6,1.4,6.4l24.1,24.1c1.8,1.8,4.9,2.7,6.3,1.3l54.8-54.8c0.9-0.9,0.9-2.5,0.3-4c-0.3-0.9-1.8-2.5-1.8-2.4l1.1-1.1
				l-20.1-20.1c-1.7-1.7-4.7-2.6-6-1.4l-8.5,8.5l-3.3-1.3c-1.5-0.6-2.9-0.4-3.8,0.5l-16,16l-27.7-27.7c-2.1-2.1-5.6-2.5-7.1-1
				l-23.5,23.5c-0.3,0.3,0,0.8,0.1,0.9l-1.5-1.5c-1.5-1.5-4.3-1.6-5.4-0.5l-3.5,3.5l2.9,2.9l3.5-3.5l5,4.5c0.1,0.1,0.4,0,0.5,0.1
				l3.2,3.2c0.2,0.2,0,0.4,0.2,0.5l4.1,4.5L387.8-1021.1L387.8-1021.1z M495.9-1032.6c0.1,0.1,0.4,0.7,0.2,1l-54.8,54.8
				c-0.3,0.3-1.3-0.3-1.7-0.7l-8.1-8.1l52.2-52.2l11.8,4.6C495.8-1032.9,495.8-1032.7,495.9-1032.6L495.9-1032.6z M474.8-1055.3
				c0.2-0.2,1.1,0.5,1.3,0.7l17.3,17.3l-25.9-10.7L474.8-1055.3L474.8-1055.3z M460.6-1047.1l19.2,8l-51,51l-13.3-13.3
				c-0.4-0.4-1-1.5-0.7-1.7l23-23l3.4-3.4l18.1-18.1C459.4-1047.8,460.3-1047.2,460.6-1047.1L460.6-1047.1z M384.9-1036.7l23.5-23.5
				c0.5-0.5,1.9-0.3,2.5,0.3l27.7,27.7l-3.5,3.5c-0.5,0.5-0.5,0.6-1.1,0l-19.1-19.1c-2.1-2.1-5.7-2.6-7.2-1l-17.5,17.5
				c-0.5,0.5-0.5,0.3-1.1-0.3l-3.2-3.2C385.4-1035.6,384.4-1036.3,384.9-1036.7L384.9-1036.7z M384.9-1036.7"/>
		</g>
	</g>
	<g id="XMLID_1054_">
		<path id="XMLID_1055_" fill="#9A9A9A" d="M323.1-1169.4l-2.8,2.8l-5.7-5.7l2.8-2.8L323.1-1169.4z M334.4-1158.1l-2.8,2.8l-5.7-5.7
			l2.8-2.8L334.4-1158.1z M345.7-1146.8l-2.8,2.8l-5.7-5.7l2.8-2.8L345.7-1146.8z M357.1-1135.5l-2.8,2.8l-5.7-5.7l2.8-2.8
			L357.1-1135.5z M368.4-1124.1l-2.8,2.8l-5.7-5.7l2.8-2.8L368.4-1124.1z M379.7-1112.8l-2.8,2.8l-5.7-5.7l2.8-2.8L379.7-1112.8z
			 M391-1101.5l-2.8,2.8l-5.7-5.7l2.8-2.8L391-1101.5z M402.3-1090.2l-2.8,2.8l-5.7-5.7l2.8-2.8L402.3-1090.2z M413.6-1078.9
			l-2.8,2.8l-5.7-5.7l2.8-2.8L413.6-1078.9z"/>
	</g>
	<g id="XMLID_1043_">
		<path id="XMLID_1044_" fill="#9A9A9A" d="M579.9-1172.2l-5.7,5.7l-2.8-2.8l5.7-5.7L579.9-1172.2z M568.6-1160.9l-5.7,5.7l-2.8-2.8
			l5.7-5.7L568.6-1160.9z M557.2-1149.6l-5.7,5.7l-2.8-2.8l5.7-5.7L557.2-1149.6z M545.9-1138.3l-5.7,5.7l-2.8-2.8l5.7-5.7
			L545.9-1138.3z M534.6-1127l-5.7,5.7l-2.8-2.8l5.7-5.7L534.6-1127z M523.3-1115.7l-5.7,5.7l-2.8-2.8l5.7-5.7L523.3-1115.7z
			 M512-1104.3l-5.7,5.7l-2.8-2.8l5.7-5.7L512-1104.3z M500.7-1093l-5.7,5.7l-2.8-2.8l5.7-5.7L500.7-1093z M489.4-1081.7l-5.7,5.7
			l-2.8-2.8l5.7-5.7L489.4-1081.7z"/>
	</g>
</g>
<g id="XMLID_25915_">
	<g id="XMLID_25919_">
		<g id="XMLID_25920_">
			<path id="XMLID_1158_" fill="#4B5366" d="M684.2-1005.7l1.5,3.4l4.7-2c1.4-0.6,2.7-2.3,1.9-4.1l-0.9-2.1c0.1,0.1,0-0.3,0.4-0.5
				l22.8-9.6c0.6-0.3,1.9,0.5,2.3,1.3l10.5,24.9c0.2,0.5,0,0.8,0.1,0.8L701-982.4c-1.8,0.8-2.1,4-1.1,6.4l13.2,31.3
				c1,2.4,3.6,4.3,5.4,3.6l71.5-30.1c1.2-0.5,1.8-2,1.8-3.6c0-0.9-0.7-3-0.8-2.9l1.4-0.6l-11.1-26.2c-0.9-2.2-3.4-4.2-5-3.5l-11,4.6
				l-2.6-2.5c-1.1-1.1-2.5-1.4-3.7-1L738-998l-15.2-36c-1.1-2.7-4.2-4.5-6.2-3.6l-30.7,12.9c-0.4,0.2-0.3,0.7-0.2,0.9l-0.8-2
				c-0.8-1.9-3.4-3.1-4.8-2.5l-4.6,1.9l1.6,3.8l4.6-1.9l3,6.1c0,0.1,0.4,0.1,0.4,0.3l1.7,4.1c0.1,0.2-0.2,0.3-0.1,0.6l2.1,5.8
				L684.2-1005.7L684.2-1005.7z M788.6-975.6c0,0.1,0.1,0.8-0.2,1l-71.5,30.1c-0.3,0.1-1.1-0.8-1.3-1.2l-4.4-10.5l68-28.6l9.2,8.7
				C788.7-975.9,788.6-975.7,788.6-975.6L788.6-975.6z M777.7-1004.6c0.2-0.1,0.8,0.9,1,1.2l9.5,22.5l-20-19.6L777.7-1004.6
				L777.7-1004.6z M761.4-1002.4l14.8,14.7l-66.5,28l-7.3-17.4c-0.2-0.5-0.4-1.7,0-1.9l30-12.6l4.4-1.9l23.6-9.9
				C760.6-1003.4,761.2-1002.6,761.4-1002.4L761.4-1002.4z M687.4-1021.3l30.7-12.9c0.6-0.3,1.8,0.5,2.2,1.3l15.2,36l-4.5,1.9
				c-0.6,0.3-0.7,0.4-1-0.4l-10.5-24.9c-1.1-2.7-4.3-4.5-6.3-3.7l-22.8,9.6c-0.6,0.3-0.5,0.1-0.9-0.7l-1.7-4.1
				C687.4-1020,686.8-1021,687.4-1021.3L687.4-1021.3z M687.4-1021.3"/>
		</g>
	</g>
	<g id="XMLID_25918_">
		<path id="XMLID_1124_" fill="#9A9A9A" d="M726.2-1047.9l-3.1-7.4l3.7-1.6l3.1,7.4L726.2-1047.9z M720-1062.7l-3.1-7.4l3.7-1.6
			l3.1,7.4L720-1062.7z M713.8-1077.4l-3.1-7.4l3.7-1.6l3.1,7.4L713.8-1077.4z M707.6-1092.2l-3.1-7.4l3.7-1.6l3.1,7.4L707.6-1092.2
			z M701.4-1106.9l-3.1-7.4l3.7-1.6l3.1,7.4L701.4-1106.9z M695.1-1121.7l-3.1-7.4l3.7-1.6l3.1,7.4L695.1-1121.7z M688.9-1136.4
			l-3.1-7.4l3.7-1.6l3.1,7.4L688.9-1136.4z M682.7-1151.1l-3.1-7.4l3.7-1.6l3.1,7.4L682.7-1151.1z M676.5-1165.9l-3.1-7.4l3.7-1.6
			l3.1,7.4L676.5-1165.9z"/>
	</g>
	<g id="XMLID_25917_">
		<path id="XMLID_1113_" fill="#9A9A9A" d="M793.7-1020.5l-1.6-3.7l7.4-3.1l1.6,3.7L793.7-1020.5z M808.5-1026.7l-1.6-3.7l7.4-3.1
			l1.6,3.7L808.5-1026.7z M823.2-1032.9l-1.6-3.7l7.4-3.1l1.6,3.7L823.2-1032.9z M838-1039.1l-1.6-3.7l7.4-3.1l1.6,3.7L838-1039.1z
			 M852.7-1045.3l-1.6-3.7l7.4-3.1l1.6,3.7L852.7-1045.3z M867.5-1051.5l-1.6-3.7l7.4-3.1l1.6,3.7L867.5-1051.5z M882.2-1057.7
			l-1.6-3.7l7.4-3.1l1.6,3.7L882.2-1057.7z M897-1064l-1.6-3.7l7.4-3.1l1.6,3.7L897-1064z M911.7-1070.2l-1.6-3.7l7.4-3.1l1.6,3.7
			L911.7-1070.2z"/>
	</g>
</g>
<g id="XMLID_25998_">
	<g id="XMLID_26001_">
		<g id="XMLID_26002_">
			<path id="XMLID_1329_" fill="#4B5366" d="M1481.2-950.6l3.2-1.9l-2.5-4.4c-0.7-1.3-2.6-2.4-4.3-1.4l-2,1.1c0.1-0.1-0.3,0-0.5-0.3
				l-12.3-21.5c-0.3-0.6,0.3-2,1-2.4l23.5-13.4c0.5-0.3,0.8-0.1,0.7-0.2l14.3,24.9c1,1.7,4.3,1.6,6.5,0.4l29.5-16.9
				c2.2-1.3,3.9-4.1,2.9-5.7l-38.5-67.3c-0.6-1.1-2.2-1.5-3.8-1.3c-0.9,0.1-2.9,1.1-2.8,1.1l-0.8-1.3l-24.7,14.1
				c-2.1,1.2-3.8,3.8-2.9,5.4l5.9,10.4l-2.1,2.9c-0.9,1.3-1.1,2.7-0.5,3.8l11.2,19.7l-34,19.4c-2.5,1.4-3.9,4.7-2.8,6.6l16.5,28.9
				c0.2,0.4,0.7,0.2,0.9,0.1l-1.9,1.1c-1.8,1-2.6,3.7-1.9,5.1l2.5,4.3l3.6-2.1l-2.5-4.3l5.7-3.7c0.1-0.1,0.1-0.4,0.2-0.5l3.9-2.2
				c0.2-0.1,0.3,0.1,0.6,0l5.5-2.8L1481.2-950.6L1481.2-950.6z M1498.6-1057.9c0.1,0,0.8-0.2,1,0.1l38.5,67.3
				c0.2,0.3-0.6,1.2-1.1,1.4l-9.9,5.7l-36.6-64l7.5-10.2C1498.3-1057.9,1498.4-1057.9,1498.6-1057.9L1498.6-1057.9z M1471.1-1043.6
				c-0.1-0.2,0.8-0.9,1-1.1l21.2-12.1l-17.1,22.2L1471.1-1043.6L1471.1-1043.6z M1475.3-1027.7l12.8-16.5l35.8,62.6l-16.4,9.4
				c-0.4,0.2-1.7,0.6-1.8,0.2l-16.1-28.2l-2.4-4.1l-12.7-22.2C1474.3-1026.7,1475.1-1027.4,1475.3-1027.7L1475.3-1027.7z
				 M1465.4-951.9l-16.5-28.9c-0.3-0.6,0.2-1.9,1-2.3l34-19.4l2.4,4.2c0.3,0.6,0.5,0.6-0.3,1l-23.5,13.4c-2.5,1.4-4,4.8-2.9,6.7
				l12.3,21.5c0.3,0.6,0.1,0.5-0.6,0.9l-3.9,2.2C1466.7-952,1465.7-951.4,1465.4-951.9L1465.4-951.9z M1465.4-951.9"/>
		</g>
	</g>
	<g id="XMLID_26000_">
		<path id="XMLID_1295_" fill="#9A9A9A" d="M1316.2-919.7l-2-3.5l6.9-4l2,3.5L1316.2-919.7z M1330.1-927.7l-2-3.5l6.9-4l2,3.5
			L1330.1-927.7z M1344-935.6l-2-3.5l6.9-4l2,3.5L1344-935.6z M1357.9-943.6l-2-3.5l6.9-4l2,3.5L1357.9-943.6z M1371.8-951.5l-2-3.5
			l6.9-4l2,3.5L1371.8-951.5z M1385.7-959.4l-2-3.5l6.9-4l2,3.5L1385.7-959.4z M1399.6-967.4l-2-3.5l6.9-4l2,3.5L1399.6-967.4z
			 M1413.4-975.3l-2-3.5l6.9-4l2,3.5L1413.4-975.3z M1427.3-983.3l-2-3.5l6.9-4l2,3.5L1427.3-983.3z"/>
	</g>
	<g id="XMLID_25999_">
		<path id="XMLID_1284_" fill="#9A9A9A" d="M1450-1055.6l-4-6.9l3.5-2l4,6.9L1450-1055.6z M1442-1069.5l-4-6.9l3.5-2l4,6.9
			L1442-1069.5z M1434.1-1083.4l-4-6.9l3.5-2l4,6.9L1434.1-1083.4z M1426.1-1097.3l-4-6.9l3.5-2l4,6.9L1426.1-1097.3z
			 M1418.2-1111.2l-4-6.9l3.5-2l4,6.9L1418.2-1111.2z M1410.2-1125l-4-6.9l3.5-2l4,6.9L1410.2-1125z M1402.3-1138.9l-4-6.9l3.5-2
			l4,6.9L1402.3-1138.9z M1394.3-1152.8l-4-6.9l3.5-2l4,6.9L1394.3-1152.8z M1386.4-1166.7l-4-6.9l3.5-2l4,6.9L1386.4-1166.7z"/>
	</g>
</g>
<g id="XMLID_26009_">
	<g id="XMLID_26012_">
		<g id="XMLID_26013_">
			<path fill="#4B5366" d="M994.7-1105.2l5,1l-0.9,6.1c-0.1,0.2,0.2,0.3,0.2,0.5l-0.9,4.4c0,0.1-0.4,0.2-0.4,0.4l-1.7,6.6l-4.9-1
				l-0.8,4.1l4.9,1c1.5,0.3,3.8-1.3,4.2-3.4l0.4-2.1c0,0.1,0,0.7,0.4,0.8l32.6,6.7c2.2,0.4,4.8-1.9,5.4-4.7l7.9-38.3l22.2,4.6
				c1.2,0.3,2.5-0.4,3.5-1.7l2.1-2.9l11.7,2.4c1.8,0.4,3.8-2.1,4.2-4.4l5.7-27.9l-1.5-0.3c0.1,0,0.4-2.1,0.2-3
				c-0.3-1.5-1.2-2.9-2.4-3.2l-76-15.6c-1.9-0.4-4,2-4.6,4.6l-6.8,33.3c-0.5,2.5,0.5,5.7,2.4,6.1l28.1,5.8c-0.1,0,0.2,0.2,0.1,0.8
				l-5.4,26.5c-0.2,0.8-1.3,1.9-2,1.7l-24.2-5c-0.4-0.1-0.4-0.5-0.5-0.4l0.5-2.2c0.4-2-1.2-3.3-2.7-3.6l-5-1L994.7-1105.2
				L994.7-1105.2z M1091.2-1155.1c0,0.1,0.1,0.3-0.1,0.6l-7.4,10.3l-72.2-14.8l2.3-11.2c0.1-0.5,0.7-1.5,1-1.5l76,15.6
				C1091.2-1156,1091.2-1155.3,1091.2-1155.1L1091.2-1155.1z M1086.2-1124.6l-10.1-2.1l15.8-23.2l-4.9,23.9
				C1086.8-1125.6,1086.4-1124.5,1086.2-1124.6L1086.2-1124.6z M1069.8-1123.5c-0.2,0.3-0.6,1.2-0.8,1.2l-25.1-5.1l-4.7-1l-31.9-6.5
				c-0.4-0.1-0.5-1.3-0.4-1.8l3.8-18.5l70.7,14.5L1069.8-1123.5L1069.8-1123.5z M1000.9-1090.6c-0.6-0.1-0.3-1.2-0.1-2.1l0.9-4.4
				c0.2-0.8,0.1-1,0.7-0.9l24.2,5c2.2,0.4,4.9-2,5.5-4.8l5.4-26.5c0.2-0.8,0.3-0.7,0.9-0.6l4.8,1l-7.9,38.3
				c-0.2,0.8-1.3,1.8-1.9,1.7L1000.9-1090.6L1000.9-1090.6z M1000.9-1090.6"/>
		</g>
	</g>
	<g id="XMLID_26011_">
		<path id="XMLID_1223_" fill="#9A9A9A" d="M1020.7-938l-3.9-0.8l1.6-7.8l3.9,0.8L1020.7-938z M1023.9-953.6l-3.9-0.8l1.6-7.8
			l3.9,0.8L1023.9-953.6z M1027.2-969.3l-3.9-0.8l1.6-7.8l3.9,0.8L1027.2-969.3z M1030.4-985l-3.9-0.8l1.6-7.8l3.9,0.8L1030.4-985z
			 M1033.6-1000.7l-3.9-0.8l1.6-7.8l3.9,0.8L1033.6-1000.7z M1036.8-1016.3l-3.9-0.8l1.6-7.8l3.9,0.8L1036.8-1016.3z M1040-1032
			l-3.9-0.8l1.6-7.8l3.9,0.8L1040-1032z M1043.2-1047.7l-3.9-0.8l1.6-7.8l3.9,0.8L1043.2-1047.7z M1046.5-1063.4l-3.9-0.8l1.6-7.8
			l3.9,0.8L1046.5-1063.4z"/>
	</g>
	<g id="XMLID_26010_">
		<path id="XMLID_1212_" fill="#9A9A9A" d="M1237.4-1080.9l-7.8-1.6l0.8-3.9l7.8,1.6L1237.4-1080.9z M1221.8-1084.1l-7.8-1.6
			l0.8-3.9l7.8,1.6L1221.8-1084.1z M1206.1-1087.3l-7.8-1.6l0.8-3.9l7.8,1.6L1206.1-1087.3z M1190.4-1090.5l-7.8-1.6l0.8-3.9
			l7.8,1.6L1190.4-1090.5z M1174.7-1093.7l-7.8-1.6l0.8-3.9l7.8,1.6L1174.7-1093.7z M1159.1-1096.9l-7.8-1.6l0.8-3.9l7.8,1.6
			L1159.1-1096.9z M1143.4-1100.2l-7.8-1.6l0.8-3.9l7.8,1.6L1143.4-1100.2z M1127.7-1103.4l-7.8-1.6l0.8-3.9l7.8,1.6L1127.7-1103.4z
			 M1112.1-1106.6l-7.8-1.6l0.8-3.9l7.8,1.6L1112.1-1106.6z"/>
	</g>
</g>
<g id="XMLID_1347_">
	<path id="XMLID_1367_" fill="#4B5366" d="M98.4-768.9h495.9c1.7,0,3-1.3,3-3s-1.3-3-3-3H98.4c-1.7,0-3,1.3-3,3
		S96.7-768.9,98.4-768.9z"/>
	<path id="XMLID_1368_" fill="#4B5366" d="M594.3-739.4H98.4c-1.7,0-3,1.3-3,3s1.3,3,3,3h495.9c1.7,0,3-1.3,3-3
		S596-739.4,594.3-739.4z"/>
	<path id="XMLID_1371_" fill="#4B5366" d="M1430-786.3h-75.3c-1.6,0-3,0.9-3.6,2.3c-0.7,1.4-0.4,3.1,0.6,4.3l19.4,22.6H783
		l19.4-22.6c1-1.2,1.3-2.9,0.6-4.3c-0.7-1.4-2.1-2.3-3.6-2.3H724c-2.2,0-4,1.8-4,4v23.8h-12v-23.8c0-2.2-1.8-4-4-4h-75.3
		c-1.6,0-3,0.9-3.6,2.3c-0.7,1.4-0.4,3.1,0.6,4.3l19.4,22.6H57l19.4-22.6c1-1.2,1.3-2.9,0.6-4.3c-0.7-1.4-2.1-2.3-3.6-2.3H-2
		c-2.2,0-4,1.8-4,4v55.6c0,2.2,1.8,4,4,4h75.3c1.6,0,3-0.9,3.6-2.3c0.7-1.4,0.4-3.1-0.6-4.3l-18.7-21.8h586.8l-18.7,21.8
		c-1,1.2-1.3,2.9-0.6,4.3c0.7,1.4,2.1,2.3,3.6,2.3H704c2.2,0,4-1.8,4-4v-23.8h12v23.8c0,2.2,1.8,4,4,4h75.3c1.6,0,3-0.9,3.6-2.3
		c0.7-1.4,0.4-3.1-0.6-4.3l-18.7-21.8h586.8l-18.7,21.8c-1,1.2-1.3,2.9-0.6,4.3c0.7,1.4,2.1,2.3,3.6,2.3h75.3c2.2,0,4-1.8,4-4v-55.6
		C1434-784.5,1432.2-786.3,1430-786.3z M64.6-730.7H2v-47.6h62.6l-18.2,21.2H27c-1.7,0-3,1.3-3,3s1.3,3,3,3h20.1L64.6-730.7z
		 M700-730.7h-62.6l17.5-20.4h18.7c1.7,0,3-1.3,3-3s-1.3-3-3-3h-18.1l-18.2-21.2H700V-730.7z M790.6-730.7H728v-23.8c0,0,0,0,0,0
		s0,0,0,0v-23.8h62.6l-18.2,21.2H753c-1.7,0-3,1.3-3,3s1.3,3,3,3h20.1L790.6-730.7z M1426-730.7h-62.6l17.5-20.4h18.7
		c1.7,0,3-1.3,3-3s-1.3-3-3-3h-18.1l-18.2-21.2h62.6V-730.7z"/>
	<path id="XMLID_1375_" fill="#4B5366" d="M824.4-768.9h495.9c1.7,0,3-1.3,3-3s-1.3-3-3-3H824.4c-1.7,0-3,1.3-3,3
		S822.7-768.9,824.4-768.9z"/>
	<path id="XMLID_1376_" fill="#4B5366" d="M1320.3-739.4H824.4c-1.7,0-3,1.3-3,3s1.3,3,3,3h495.9c1.7,0,3-1.3,3-3
		S1322-739.4,1320.3-739.4z"/>
</g>
<g id="XMLID_1406_">
	<path id="XMLID_1520_" fill="#4B5366" d="M952.8-143.4C952.8-143.4,952.8-143.4,952.8-143.4c0-1.7-1.3-3-3-3h-20.5v-441.8
		c0-1.7-1.3-3-3-3H901c-1.7,0-3,1.3-3,3v444.8c0,1.7,1.3,3,3,3h23.2v20.1h-6.4c-1.1,0-2.1,0.6-2.6,1.6h-7.5c-0.6,0-1,0.4-1,1
		s0.4,1,1,1h7.1v37.3c0,1.7,1.3,3,3,3h0c0,0,0,0,0,0h32c1.7,0,3-1.3,3-3c0,0,0,0,0,0V-143.4z M923.2-146.5H904v-438.8h19.2V-146.5z
		 M946.8-82.5h-26v-31.8h5.4c1.7,0,3-1.3,3-3c0-0.9-0.4-1.7-1-2.2v-20.8h18.5V-82.5z"/>
	<path id="XMLID_1526_" fill="#4B5366" d="M330.6-143c0-0.6-0.4-1-1-1h-8c-0.6,0-1,0.4-1,1s0.4,1,1,1h8
		C330.1-142,330.6-142.5,330.6-143z"/>
	<path id="XMLID_1527_" fill="#4B5366" d="M318.3-118.8h-8c-0.6,0-1,0.4-1,1s0.4,1,1,1h8c0.6,0,1-0.4,1-1S318.8-118.8,318.3-118.8z"
		/>
	<path id="XMLID_1528_" fill="#4B5366" d="M334.3-118.8h-8c-0.6,0-1,0.4-1,1s0.4,1,1,1h8c0.6,0,1-0.4,1-1S334.8-118.8,334.3-118.8z"
		/>
	<path id="XMLID_1529_" fill="#4B5366" d="M314.6-143c0-0.6-0.4-1-1-1h-8c-0.6,0-1,0.4-1,1s0.4,1,1,1h8
		C314.1-142,314.6-142.5,314.6-143z"/>
	<path id="XMLID_1530_" fill="#4B5366" d="M350.3-118.8h-8c-0.6,0-1,0.4-1,1s0.4,1,1,1h8c0.6,0,1-0.4,1-1S350.8-118.8,350.3-118.8z"
		/>
	<path id="XMLID_1531_" fill="#4B5366" d="M362.6-143c0-0.6-0.4-1-1-1h-8c-0.6,0-1,0.4-1,1s0.4,1,1,1h8
		C362.1-142,362.6-142.5,362.6-143z"/>
	<path id="XMLID_1532_" fill="#4B5366" d="M346.6-143c0-0.6-0.4-1-1-1h-8c-0.6,0-1,0.4-1,1s0.4,1,1,1h8
		C346.1-142,346.6-142.5,346.6-143z"/>
	<path id="XMLID_1533_" fill="#4B5366" d="M254.3-118.8h-8c-0.6,0-1,0.4-1,1s0.4,1,1,1h8c0.6,0,1-0.4,1-1S254.8-118.8,254.3-118.8z"
		/>
	<path id="XMLID_1534_" fill="#4B5366" d="M302.3-118.8h-8c-0.6,0-1,0.4-1,1s0.4,1,1,1h8c0.6,0,1-0.4,1-1S302.8-118.8,302.3-118.8z"
		/>
	<path id="XMLID_1535_" fill="#4B5366" d="M266.6-143c0-0.6-0.4-1-1-1h-8c-0.6,0-1,0.4-1,1s0.4,1,1,1h8
		C266.1-142,266.6-142.5,266.6-143z"/>
	<path id="XMLID_1536_" fill="#4B5366" d="M282.6-143c0-0.6-0.4-1-1-1h-8c-0.6,0-1,0.4-1,1s0.4,1,1,1h8
		C282.1-142,282.6-142.5,282.6-143z"/>
	<path id="XMLID_1537_" fill="#4B5366" d="M298.6-143c0-0.6-0.4-1-1-1h-8c-0.6,0-1,0.4-1,1s0.4,1,1,1h8
		C298.1-142,298.6-142.5,298.6-143z"/>
	<path id="XMLID_1538_" fill="#4B5366" d="M286.3-118.8h-8c-0.6,0-1,0.4-1,1s0.4,1,1,1h8c0.6,0,1-0.4,1-1S286.8-118.8,286.3-118.8z"
		/>
	<path id="XMLID_1539_" fill="#4B5366" d="M270.3-118.8h-8c-0.6,0-1,0.4-1,1s0.4,1,1,1h8c0.6,0,1-0.4,1-1S270.8-118.8,270.3-118.8z"
		/>
	<path id="XMLID_1540_" fill="#4B5366" d="M430.3-118.8h-8c-0.6,0-1,0.4-1,1s0.4,1,1,1h8c0.6,0,1-0.4,1-1S430.8-118.8,430.3-118.8z"
		/>
	<path id="XMLID_1541_" fill="#4B5366" d="M426.6-143c0-0.6-0.4-1-1-1h-8c-0.6,0-1,0.4-1,1s0.4,1,1,1h8
		C426.1-142,426.6-142.5,426.6-143z"/>
	<path id="XMLID_1542_" fill="#4B5366" d="M462.3-118.8h-8c-0.6,0-1,0.4-1,1s0.4,1,1,1h8c0.6,0,1-0.4,1-1S462.8-118.8,462.3-118.8z"
		/>
	<path id="XMLID_1543_" fill="#4B5366" d="M446.3-118.8h-8c-0.6,0-1,0.4-1,1s0.4,1,1,1h8c0.6,0,1-0.4,1-1S446.8-118.8,446.3-118.8z"
		/>
	<path id="XMLID_1544_" fill="#4B5366" d="M414.3-118.8h-8c-0.6,0-1,0.4-1,1s0.4,1,1,1h8c0.6,0,1-0.4,1-1S414.8-118.8,414.3-118.8z"
		/>
	<path id="XMLID_1545_" fill="#4B5366" d="M458.6-143c0-0.6-0.4-1-1-1h-8c-0.6,0-1,0.4-1,1s0.4,1,1,1h8
		C458.1-142,458.6-142.5,458.6-143z"/>
	<path id="XMLID_1546_" fill="#4B5366" d="M366.3-118.8h-8c-0.6,0-1,0.4-1,1s0.4,1,1,1h8c0.6,0,1-0.4,1-1S366.8-118.8,366.3-118.8z"
		/>
	<path id="XMLID_1547_" fill="#4B5366" d="M378.6-143c0-0.6-0.4-1-1-1h-8c-0.6,0-1,0.4-1,1s0.4,1,1,1h8
		C378.1-142,378.6-142.5,378.6-143z"/>
	<path id="XMLID_1548_" fill="#4B5366" d="M382.3-118.8h-8c-0.6,0-1,0.4-1,1s0.4,1,1,1h8c0.6,0,1-0.4,1-1S382.8-118.8,382.3-118.8z"
		/>
	<path id="XMLID_1549_" fill="#4B5366" d="M394.6-143c0-0.6-0.4-1-1-1h-8c-0.6,0-1,0.4-1,1s0.4,1,1,1h8
		C394.1-142,394.6-142.5,394.6-143z"/>
	<path id="XMLID_1550_" fill="#4B5366" d="M410.6-143c0-0.6-0.4-1-1-1h-8c-0.6,0-1,0.4-1,1s0.4,1,1,1h8
		C410.1-142,410.6-142.5,410.6-143z"/>
	<path id="XMLID_1551_" fill="#4B5366" d="M398.3-118.8h-8c-0.6,0-1,0.4-1,1s0.4,1,1,1h8c0.6,0,1-0.4,1-1S398.8-118.8,398.3-118.8z"
		/>
	<path id="XMLID_1552_" fill="#4B5366" d="M442.6-143c0-0.6-0.4-1-1-1h-8c-0.6,0-1,0.4-1,1s0.4,1,1,1h8
		C442.1-142,442.6-142.5,442.6-143z"/>
	<path id="XMLID_1553_" fill="#4B5366" d="M110.3-118.8h-8c-0.6,0-1,0.4-1,1s0.4,1,1,1h8c0.6,0,1-0.4,1-1S110.8-118.8,110.3-118.8z"
		/>
	<path id="XMLID_1554_" fill="#4B5366" d="M142.3-118.8h-8c-0.6,0-1,0.4-1,1s0.4,1,1,1h8c0.6,0,1-0.4,1-1S142.8-118.8,142.3-118.8z"
		/>
	<path id="XMLID_1555_" fill="#4B5366" d="M106.6-143c0-0.6-0.4-1-1-1h-8c-0.6,0-1,0.4-1,1s0.4,1,1,1h8
		C106.1-142,106.6-142.5,106.6-143z"/>
	<path id="XMLID_1556_" fill="#4B5366" d="M138.6-143c0-0.6-0.4-1-1-1h-8c-0.6,0-1,0.4-1,1s0.4,1,1,1h8
		C138.1-142,138.6-142.5,138.6-143z"/>
	<path id="XMLID_1557_" fill="#4B5366" d="M94.3-118.8h-8c-0.6,0-1,0.4-1,1s0.4,1,1,1h8c0.6,0,1-0.4,1-1S94.8-118.8,94.3-118.8z"/>
	<path id="XMLID_1558_" fill="#4B5366" d="M126.3-118.8h-8c-0.6,0-1,0.4-1,1s0.4,1,1,1h8c0.6,0,1-0.4,1-1S126.8-118.8,126.3-118.8z"
		/>
	<path id="XMLID_1559_" fill="#4B5366" d="M122.6-143c0-0.6-0.4-1-1-1h-8c-0.6,0-1,0.4-1,1s0.4,1,1,1h8
		C122.1-142,122.6-142.5,122.6-143z"/>
	<path id="XMLID_1560_" fill="#4B5366" d="M62.3-118.8h-8c-0.6,0-1,0.4-1,1s0.4,1,1,1h8c0.6,0,1-0.4,1-1S62.8-118.8,62.3-118.8z"/>
	<path id="XMLID_1561_" fill="#4B5366" d="M46.3-118.8h-8c-0.6,0-1,0.4-1,1s0.4,1,1,1h8c0.6,0,1-0.4,1-1S46.8-118.8,46.3-118.8z"/>
	<path id="XMLID_1562_" fill="#4B5366" d="M74.6-143c0-0.6-0.4-1-1-1h-8c-0.6,0-1,0.4-1,1s0.4,1,1,1h8C74.1-142,74.6-142.5,74.6-143
		z"/>
	<path id="XMLID_1563_" fill="#4B5366" d="M78.3-118.8h-8c-0.6,0-1,0.4-1,1s0.4,1,1,1h8c0.6,0,1-0.4,1-1S78.8-118.8,78.3-118.8z"/>
	<path id="XMLID_1564_" fill="#4B5366" d="M90.6-143c0-0.6-0.4-1-1-1h-8c-0.6,0-1,0.4-1,1s0.4,1,1,1h8C90.1-142,90.6-142.5,90.6-143
		z"/>
	<path id="XMLID_1565_" fill="#4B5366" d="M238.3-118.8h-8c-0.6,0-1,0.4-1,1s0.4,1,1,1h8c0.6,0,1-0.4,1-1S238.8-118.8,238.3-118.8z"
		/>
	<path id="XMLID_1566_" fill="#4B5366" d="M218.6-143c0-0.6-0.4-1-1-1h-8c-0.6,0-1,0.4-1,1s0.4,1,1,1h8
		C218.1-142,218.6-142.5,218.6-143z"/>
	<path id="XMLID_1567_" fill="#4B5366" d="M202.6-143c0-0.6-0.4-1-1-1h-8c-0.6,0-1,0.4-1,1s0.4,1,1,1h8
		C202.1-142,202.6-142.5,202.6-143z"/>
	<path id="XMLID_1568_" fill="#4B5366" d="M206.3-118.8h-8c-0.6,0-1,0.4-1,1s0.4,1,1,1h8c0.6,0,1-0.4,1-1S206.8-118.8,206.3-118.8z"
		/>
	<path id="XMLID_1569_" fill="#4B5366" d="M222.3-118.8h-8c-0.6,0-1,0.4-1,1s0.4,1,1,1h8c0.6,0,1-0.4,1-1S222.8-118.8,222.3-118.8z"
		/>
	<path id="XMLID_1570_" fill="#4B5366" d="M234.6-143c0-0.6-0.4-1-1-1h-8c-0.6,0-1,0.4-1,1s0.4,1,1,1h8
		C234.1-142,234.6-142.5,234.6-143z"/>
	<path id="XMLID_1571_" fill="#4B5366" d="M250.6-143c0-0.6-0.4-1-1-1h-8c-0.6,0-1,0.4-1,1s0.4,1,1,1h8
		C250.1-142,250.6-142.5,250.6-143z"/>
	<path id="XMLID_1572_" fill="#4B5366" d="M158.3-118.8h-8c-0.6,0-1,0.4-1,1s0.4,1,1,1h8c0.6,0,1-0.4,1-1S158.8-118.8,158.3-118.8z"
		/>
	<path id="XMLID_1573_" fill="#4B5366" d="M170.6-143c0-0.6-0.4-1-1-1h-8c-0.6,0-1,0.4-1,1s0.4,1,1,1h8
		C170.1-142,170.6-142.5,170.6-143z"/>
	<path id="XMLID_1574_" fill="#4B5366" d="M154.6-143c0-0.6-0.4-1-1-1h-8c-0.6,0-1,0.4-1,1s0.4,1,1,1h8
		C154.1-142,154.6-142.5,154.6-143z"/>
	<path id="XMLID_1575_" fill="#4B5366" d="M186.6-143c0-0.6-0.4-1-1-1h-8c-0.6,0-1,0.4-1,1s0.4,1,1,1h8
		C186.1-142,186.6-142.5,186.6-143z"/>
	<path id="XMLID_1576_" fill="#4B5366" d="M174.3-118.8h-8c-0.6,0-1,0.4-1,1s0.4,1,1,1h8c0.6,0,1-0.4,1-1S174.8-118.8,174.3-118.8z"
		/>
	<path id="XMLID_1577_" fill="#4B5366" d="M190.3-118.8h-8c-0.6,0-1,0.4-1,1s0.4,1,1,1h8c0.6,0,1-0.4,1-1S190.8-118.8,190.3-118.8z"
		/>
	<path id="XMLID_1580_" fill="#4B5366" d="M58.6-143c0-0.6-0.4-1-1-1h-8c-0.3,0-0.6,0.2-0.8,0.4v-444.7c0-1.7-1.3-3-3-3H20.5
		c-1.7,0-3,1.3-3,3v441.8H-3c-1.7,0-3,1.3-3,3v63.9c0,1.7,1.3,3,3,3h31.1c1.7,0,3-1.3,3-3v-37.7c0.1-0.2,0.2-0.3,0.2-0.5
		c0-0.3-0.2-0.6-0.4-0.8c-0.5-1-1.5-1.8-2.7-1.8h-4.6v-20.1h22.2c1.4,0,2.5-0.9,2.9-2.2c0.1,0.4,0.5,0.6,0.9,0.6h8
		C58.1-142,58.6-142.5,58.6-143z M25.1-114.4v31.8H0v-57.9h17.5v23.1c0,1.7,1.3,3,3,3H25.1z M42.8-146.5H23.5v-438.8h19.2V-146.5z"
		/>
	<path id="XMLID_1582_" fill="#4B5366" d="M767.2-143c0-0.6-0.4-1-1-1h-8c-0.6,0-1,0.4-1,1s0.4,1,1,1h8
		C766.8-142,767.2-142.5,767.2-143z"/>
	<path id="XMLID_1583_" fill="#4B5366" d="M771.7-118.8h-8c-0.6,0-1,0.4-1,1s0.4,1,1,1h8c0.6,0,1-0.4,1-1S772.3-118.8,771.7-118.8z"
		/>
	<path id="XMLID_1584_" fill="#4B5366" d="M755.7-118.8h-8c-0.6,0-1,0.4-1,1s0.4,1,1,1h8c0.6,0,1-0.4,1-1S756.3-118.8,755.7-118.8z"
		/>
	<path id="XMLID_1585_" fill="#4B5366" d="M787.7-118.8h-8c-0.6,0-1,0.4-1,1s0.4,1,1,1h8c0.6,0,1-0.4,1-1S788.3-118.8,787.7-118.8z"
		/>
	<path id="XMLID_1586_" fill="#4B5366" d="M783.2-143c0-0.6-0.4-1-1-1h-8c-0.6,0-1,0.4-1,1s0.4,1,1,1h8
		C782.8-142,783.2-142.5,783.2-143z"/>
	<path id="XMLID_1587_" fill="#4B5366" d="M751.2-143c0-0.6-0.4-1-1-1h-8c-0.6,0-1,0.4-1,1s0.4,1,1,1h8
		C750.8-142,751.2-142.5,751.2-143z"/>
	<path id="XMLID_1588_" fill="#4B5366" d="M723.7-118.8h-8c-0.6,0-1,0.4-1,1s0.4,1,1,1h8c0.6,0,1-0.4,1-1S724.3-118.8,723.7-118.8z"
		/>
	<path id="XMLID_1589_" fill="#4B5366" d="M719.2-143c0-0.6-0.4-1-1-1h-8c-0.6,0-1,0.4-1,1s0.4,1,1,1h8
		C718.8-142,719.2-142.5,719.2-143z"/>
	<path id="XMLID_1590_" fill="#4B5366" d="M707.7-118.8h-8c-0.6,0-1,0.4-1,1s0.4,1,1,1h8c0.6,0,1-0.4,1-1S708.3-118.8,707.7-118.8z"
		/>
	<path id="XMLID_1591_" fill="#4B5366" d="M703.2-143c0-0.6-0.4-1-1-1h-8c-0.6,0-1,0.4-1,1s0.4,1,1,1h8
		C702.8-142,703.2-142.5,703.2-143z"/>
	<path id="XMLID_1592_" fill="#4B5366" d="M735.2-143c0-0.6-0.4-1-1-1h-8c-0.6,0-1,0.4-1,1s0.4,1,1,1h8
		C734.8-142,735.2-142.5,735.2-143z"/>
	<path id="XMLID_1593_" fill="#4B5366" d="M799.2-143c0-0.6-0.4-1-1-1h-8c-0.6,0-1,0.4-1,1s0.4,1,1,1h8
		C798.8-142,799.2-142.5,799.2-143z"/>
	<path id="XMLID_1594_" fill="#4B5366" d="M739.7-118.8h-8c-0.6,0-1,0.4-1,1s0.4,1,1,1h8c0.6,0,1-0.4,1-1S740.3-118.8,739.7-118.8z"
		/>
	<path id="XMLID_1595_" fill="#4B5366" d="M691.7-118.8h-8c-0.6,0-1,0.4-1,1s0.4,1,1,1h8c0.6,0,1-0.4,1-1S692.3-118.8,691.7-118.8z"
		/>
	<path id="XMLID_1596_" fill="#4B5366" d="M863.2-143c0-0.6-0.4-1-1-1h-8c-0.6,0-1,0.4-1,1s0.4,1,1,1h8
		C862.8-142,863.2-142.5,863.2-143z"/>
	<path id="XMLID_1597_" fill="#4B5366" d="M479.2-143c0-0.6-0.4-1-1-1h-4.6h-8c-0.6,0-1,0.4-1,1s0.4,1,1,1h7v2.4
		c0,0.2,0.1,0.4,0.2,0.6c-0.1,0.2-0.2,0.4-0.2,0.6v6.8v1.2v6.8c0,0.2,0.1,0.4,0.2,0.6c-0.1,0.2-0.2,0.4-0.2,0.6v3.7h-2.3
		c-0.6,0-1,0.4-1,1s0.4,1,1,1h3.3c0.6,0,1-0.4,1-1v-4.7c0-0.2-0.1-0.4-0.2-0.6c0.1-0.2,0.2-0.4,0.2-0.6v-6.8v-1.2v-6.8
		c0-0.2-0.1-0.4-0.2-0.6c0.1-0.2,0.2-0.4,0.2-0.6v-2.4h3.6C478.8-142,479.2-142.5,479.2-143z"/>
	<path id="XMLID_1598_" fill="#4B5366" d="M867.7-118.8h-8c-0.6,0-1,0.4-1,1s0.4,1,1,1h8c0.6,0,1-0.4,1-1S868.3-118.8,867.7-118.8z"
		/>
	<path id="XMLID_1599_" fill="#4B5366" d="M883.7-118.8h-8c-0.6,0-1,0.4-1,1s0.4,1,1,1h8c0.6,0,1-0.4,1-1S884.3-118.8,883.7-118.8z"
		/>
	<path id="XMLID_1600_" fill="#4B5366" d="M895.2-143c0-0.6-0.4-1-1-1h-8c-0.6,0-1,0.4-1,1s0.4,1,1,1h8
		C894.8-142,895.2-142.5,895.2-143z"/>
	<path id="XMLID_1601_" fill="#4B5366" d="M899.7-118.8h-8c-0.6,0-1,0.4-1,1s0.4,1,1,1h8c0.6,0,1-0.4,1-1S900.3-118.8,899.7-118.8z"
		/>
	<path id="XMLID_1602_" fill="#4B5366" d="M835.7-118.8h-8c-0.6,0-1,0.4-1,1s0.4,1,1,1h8c0.6,0,1-0.4,1-1S836.3-118.8,835.7-118.8z"
		/>
	<path id="XMLID_1603_" fill="#4B5366" d="M819.7-118.8h-8c-0.6,0-1,0.4-1,1s0.4,1,1,1h8c0.6,0,1-0.4,1-1S820.3-118.8,819.7-118.8z"
		/>
	<path id="XMLID_1604_" fill="#4B5366" d="M831.2-143c0-0.6-0.4-1-1-1h-8c-0.6,0-1,0.4-1,1s0.4,1,1,1h8
		C830.8-142,831.2-142.5,831.2-143z"/>
	<path id="XMLID_1605_" fill="#4B5366" d="M815.2-143c0-0.6-0.4-1-1-1h-8c-0.6,0-1,0.4-1,1s0.4,1,1,1h8
		C814.8-142,815.2-142.5,815.2-143z"/>
	<path id="XMLID_1606_" fill="#4B5366" d="M803.7-118.8h-8c-0.6,0-1,0.4-1,1s0.4,1,1,1h8c0.6,0,1-0.4,1-1S804.3-118.8,803.7-118.8z"
		/>
	<path id="XMLID_1607_" fill="#4B5366" d="M851.7-118.8h-8c-0.6,0-1,0.4-1,1s0.4,1,1,1h8c0.6,0,1-0.4,1-1S852.3-118.8,851.7-118.8z"
		/>
	<path id="XMLID_1608_" fill="#4B5366" d="M847.2-143c0-0.6-0.4-1-1-1h-8c-0.6,0-1,0.4-1,1s0.4,1,1,1h8
		C846.8-142,847.2-142.5,847.2-143z"/>
	<path id="XMLID_1609_" fill="#4B5366" d="M879.2-143c0-0.6-0.4-1-1-1h-8c-0.6,0-1,0.4-1,1s0.4,1,1,1h8
		C878.8-142,879.2-142.5,879.2-143z"/>
	<path id="XMLID_1610_" fill="#4B5366" d="M559.2-143c0-0.6-0.4-1-1-1h-8c-0.6,0-1,0.4-1,1s0.4,1,1,1h8
		C558.8-142,559.2-142.5,559.2-143z"/>
	<path id="XMLID_1611_" fill="#4B5366" d="M531.7-118.8h-8c-0.6,0-1,0.4-1,1s0.4,1,1,1h8c0.6,0,1-0.4,1-1S532.3-118.8,531.7-118.8z"
		/>
	<path id="XMLID_1612_" fill="#4B5366" d="M543.2-143c0-0.6-0.4-1-1-1h-8c-0.6,0-1,0.4-1,1s0.4,1,1,1h8
		C542.8-142,543.2-142.5,543.2-143z"/>
	<path id="XMLID_1613_" fill="#4B5366" d="M547.7-118.8h-8c-0.6,0-1,0.4-1,1s0.4,1,1,1h8c0.6,0,1-0.4,1-1S548.3-118.8,547.7-118.8z"
		/>
	<path id="XMLID_1614_" fill="#4B5366" d="M575.2-143c0-0.6-0.4-1-1-1h-8c-0.6,0-1,0.4-1,1s0.4,1,1,1h8
		C574.8-142,575.2-142.5,575.2-143z"/>
	<path id="XMLID_1615_" fill="#4B5366" d="M563.7-118.8h-8c-0.6,0-1,0.4-1,1s0.4,1,1,1h8c0.6,0,1-0.4,1-1S564.3-118.8,563.7-118.8z"
		/>
	<path id="XMLID_1616_" fill="#4B5366" d="M579.7-118.8h-8c-0.6,0-1,0.4-1,1s0.4,1,1,1h8c0.6,0,1-0.4,1-1S580.3-118.8,579.7-118.8z"
		/>
	<path id="XMLID_1617_" fill="#4B5366" d="M495.2-143c0-0.6-0.4-1-1-1h-8c-0.6,0-1,0.4-1,1s0.4,1,1,1h8
		C494.8-142,495.2-142.5,495.2-143z"/>
	<path id="XMLID_1618_" fill="#4B5366" d="M499.7-118.8h-8c-0.6,0-1,0.4-1,1s0.4,1,1,1h8c0.6,0,1-0.4,1-1S500.3-118.8,499.7-118.8z"
		/>
	<path id="XMLID_1619_" fill="#4B5366" d="M527.2-143c0-0.6-0.4-1-1-1h-8c-0.6,0-1,0.4-1,1s0.4,1,1,1h8
		C526.8-142,527.2-142.5,527.2-143z"/>
	<path id="XMLID_1620_" fill="#4B5366" d="M687.2-143c0-0.6-0.4-1-1-1h-8c-0.6,0-1,0.4-1,1s0.4,1,1,1h8
		C686.8-142,687.2-142.5,687.2-143z"/>
	<path id="XMLID_1621_" fill="#4B5366" d="M511.2-143c0-0.6-0.4-1-1-1h-8c-0.6,0-1,0.4-1,1s0.4,1,1,1h8
		C510.8-142,511.2-142.5,511.2-143z"/>
	<path id="XMLID_1622_" fill="#4B5366" d="M515.7-118.8h-8c-0.6,0-1,0.4-1,1s0.4,1,1,1h8c0.6,0,1-0.4,1-1S516.3-118.8,515.7-118.8z"
		/>
	<path id="XMLID_1623_" fill="#4B5366" d="M483.7-118.8h-8c-0.6,0-1,0.4-1,1s0.4,1,1,1h8c0.6,0,1-0.4,1-1S484.3-118.8,483.7-118.8z"
		/>
	<path id="XMLID_1624_" fill="#4B5366" d="M659.7-118.8h-8c-0.6,0-1,0.4-1,1s0.4,1,1,1h8c0.6,0,1-0.4,1-1S660.3-118.8,659.7-118.8z"
		/>
	<path id="XMLID_1625_" fill="#4B5366" d="M655.2-143c0-0.6-0.4-1-1-1h-8c-0.6,0-1,0.4-1,1s0.4,1,1,1h8
		C654.8-142,655.2-142.5,655.2-143z"/>
	<path id="XMLID_1626_" fill="#4B5366" d="M643.7-118.8h-8c-0.6,0-1,0.4-1,1s0.4,1,1,1h8c0.6,0,1-0.4,1-1S644.3-118.8,643.7-118.8z"
		/>
	<path id="XMLID_1627_" fill="#4B5366" d="M675.7-118.8h-8c-0.6,0-1,0.4-1,1s0.4,1,1,1h8c0.6,0,1-0.4,1-1S676.3-118.8,675.7-118.8z"
		/>
	<path id="XMLID_1628_" fill="#4B5366" d="M639.2-143c0-0.6-0.4-1-1-1h-8c-0.6,0-1,0.4-1,1s0.4,1,1,1h8
		C638.8-142,639.2-142.5,639.2-143z"/>
	<path id="XMLID_1629_" fill="#4B5366" d="M671.2-143c0-0.6-0.4-1-1-1h-8c-0.6,0-1,0.4-1,1s0.4,1,1,1h8
		C670.8-142,671.2-142.5,671.2-143z"/>
	<path id="XMLID_1630_" fill="#4B5366" d="M607.2-143c0-0.6-0.4-1-1-1h-8c-0.6,0-1,0.4-1,1s0.4,1,1,1h8
		C606.8-142,607.2-142.5,607.2-143z"/>
	<path id="XMLID_1631_" fill="#4B5366" d="M591.2-143c0-0.6-0.4-1-1-1h-8c-0.6,0-1,0.4-1,1s0.4,1,1,1h8
		C590.8-142,591.2-142.5,591.2-143z"/>
	<path id="XMLID_1632_" fill="#4B5366" d="M595.7-118.8h-8c-0.6,0-1,0.4-1,1s0.4,1,1,1h8c0.6,0,1-0.4,1-1S596.3-118.8,595.7-118.8z"
		/>
	<path id="XMLID_1633_" fill="#4B5366" d="M623.2-143c0-0.6-0.4-1-1-1h-8c-0.6,0-1,0.4-1,1s0.4,1,1,1h8
		C622.8-142,623.2-142.5,623.2-143z"/>
	<path id="XMLID_1634_" fill="#4B5366" d="M627.7-118.8h-8c-0.6,0-1,0.4-1,1s0.4,1,1,1h8c0.6,0,1-0.4,1-1S628.3-118.8,627.7-118.8z"
		/>
	<path id="XMLID_1635_" fill="#4B5366" d="M611.7-118.8h-8c-0.6,0-1,0.4-1,1s0.4,1,1,1h8c0.6,0,1-0.4,1-1S612.3-118.8,611.7-118.8z"
		/>
</g>
<g id="XMLID_108_">
	<ellipse id="XMLID_115_" fill="#F9F9F9" cx="26.6" cy="25.7" rx="9.3" ry="16.9"/>
	<g id="XMLID_109_">
		<path id="XMLID_110_" fill="#CE2020" d="M31.2,49.9l-4.9,8.4c0,0,0,0,0,0l-4.9-8.4c0,0,0,0,0,0C10.2,47.7,1.7,38.1,1.1,26.4
			C0.4,11.7,12.5-0.5,27.2,0c13.5,0.5,24.3,11.6,24.3,25.2C51.5,37.4,42.7,47.6,31.2,49.9L31.2,49.9z M22.7,13.1
			c-1.1,0.4-1.6,0.9-1.6,1.4c0,0.6,0.3,1.1,1,1.3l0,0c1.6,1.2,2.6,4,3.2,8.4c0.1,0.7,0.2,1.3,0.2,1.6c0,0.1,0.1,0.3,0.2,0.6l0,0
			c0.5,2.7,1.1,4.1,1.7,4.1l0,0c0.8,0.4,1.4-1,1.7-4.1l0,0c1.2-5.5,1.7-9.2,1.7-11.3c0-3.1-0.8-4.6-2.5-4.6c-0.7,0-1.7,0.4-3,1.3
			l0,0c-1,0.4-1.7,0.8-2.2,1.1l0,0L22.7,13.1L22.7,13.1z M27.3,39.8c0.5,0,1-0.2,1.4-0.6l1.9-1.7l0,0c0.5-0.4,0.8-0.8,0.8-1.3
			c0-0.4-0.3-0.8-0.8-1.3l0,0L28.9,33c-0.1-0.1-0.2-0.2-0.3-0.3c-0.4-0.4-0.8-0.6-1.1-0.6c-0.3,0-0.6,0.2-1,0.5
			c-0.1,0.1-0.2,0.2-0.3,0.2c0,0,0,0,0,0l-2.1,2.2c-0.5,0.5-0.8,1-0.8,1.3c0,0.4,0.3,0.9,0.8,1.4l0,0l2.1,1.6l0,0
			C26.5,39.6,26.9,39.8,27.3,39.8L27.3,39.8z M27.3,39.8"/>
	</g>
</g>
</svg>
